<svg aria-hidden="true" style="position: absolute; width: 0; height: 0; overflow: hidden;"
    version="1.1" xmlns="http://www.w3.org/2000/svg" xmlns:xlink="http://www.w3.org/1999/xlink">
    <defs>
    <symbol id="icon-visible" viewBox="0 0 32 32">
<path opacity="0.6" d="M16.050 9.005c-7.045 0-13.867 6.722-14.14 7.020-0.198 0.198-0.298 0.447-0.298 0.719s0.099 0.521 0.298 0.719c0.298 0.298 7.095 7.020 14.14 7.020s13.867-6.722 14.14-7.020c0.198-0.198 0.298-0.447 0.298-0.719s-0.099-0.521-0.298-0.719c-0.273-0.298-7.070-7.020-14.14-7.020zM16.050 22.425c-4.936 0-10.022-4.019-11.932-5.705 1.91-1.687 6.995-5.705 11.932-5.705s10.022 4.019 11.932 5.705c-1.91 1.687-6.995 5.705-11.932 5.705z"></path>
<path  opacity="0.6" d="M12.403 16.719c0 2.009 1.637 3.671 3.671 3.671s3.671-1.637 3.671-3.671-1.637-3.671-3.671-3.671-3.671 1.662-3.671 3.671zM17.687 16.719c0 0.893-0.719 1.637-1.637 1.637-0.893 0-1.637-0.719-1.637-1.637s0.719-1.637 1.637-1.637c0.893 0.025 1.637 0.744 1.637 1.637z"></path>
</symbol>
<symbol id="icon-unvisible" viewBox="0 0 32 32">
<path  opacity="0.6" d="M22.391 18.133c0.242-0.627 0.382-1.353 0.382-2.112 0-0.007 0-0.015-0-0.022v0.001c0-3.368-2.73-6.098-6.098-6.098v0c-0.757 0.001-1.481 0.141-2.148 0.396l0.041-0.014 1.431 1.476c0.197-0.033 0.425-0.053 0.657-0.053h0.001c0.003 0 0.006 0 0.009 0 2.378 0 4.309 1.918 4.329 4.291v0.002c-0.001 0.233-0.020 0.461-0.057 0.682l0.003-0.025z"></path>
<path opacity="0.6" d="M30.48 15.582c-2.996-5.538-8.249-8.889-14.062-8.889-1.667 0.004-3.268 0.28-4.763 0.787l0.105-0.031 1.431 1.44c0.967-0.26 2.078-0.412 3.223-0.418h0.003c5.004 0 9.556 2.791 12.267 7.493-1.027 1.781-2.324 3.285-3.853 4.509l-0.031 0.024 1.262 1.262c1.803-1.462 3.29-3.233 4.398-5.242l0.046-0.091 0.231-0.427z"></path>
<path opacity="0.6" d="M4.329 5.138l3.964 3.964c-2.505 1.629-4.518 3.814-5.901 6.387l-0.045 0.093-0.231 0.418 0.231 0.427c2.996 5.538 8.249 8.889 14.062 8.889 2.383-0 4.637-0.555 6.639-1.542l-0.088 0.039 4.444 4.444 1.556-1.333-23.111-23.111zM12.996 13.804l5.911 5.911c-0.632 0.397-1.399 0.634-2.221 0.64h-0.002c-0 0-0 0-0 0-2.391 0-4.329-1.938-4.329-4.329 0-0.009 0-0.019 0-0.028v0.001c0.011-0.814 0.248-1.571 0.65-2.213l-0.010 0.018zM11.707 12.516c-0.702 0.979-1.122 2.201-1.122 3.522 0 3.363 2.726 6.089 6.089 6.089 1.32 0 2.543-0.42 3.54-1.134l-0.018 0.012 1.422 1.422c-1.536 0.674-3.327 1.067-5.209 1.067v0c-5.004 0-9.556-2.791-12.267-7.493 1.328-2.322 3.167-4.212 5.373-5.562l0.067-0.038z"></path>
</symbol>
        <symbol id="icon-logo" viewBox="0 0 83 32">
            <path
                d="M80.941 13.715c1.040 0 1.882 0.843 1.882 1.882v0 0.806c0 1.040-0.843 1.882-1.882 1.882v0h-2.152c-1.040 0-1.882 0.843-1.882 1.882v0 5.378c0 1.040-0.843 1.882-1.882 1.882v0h-2.152c-1.040 0-1.882 0.843-1.882 1.882v0 0.808c0 1.040-0.843 1.882-1.882 1.882v0h-5.109c-1.040 0-1.882-0.843-1.882-1.882v0-9.95c0-1.040-0.843-1.882-1.882-1.882v0h-37.647c-1.040 0-1.882 0.843-1.882 1.882v0 9.95c0 1.040-0.843 1.882-1.882 1.882v0h-5.109c-1.040 0-1.882-0.843-1.882-1.882v0-0.808c0-1.040-0.843-1.882-1.882-1.882v0h-2.152c-1.040 0-1.882-0.843-1.882-1.882v0-5.378c0-1.040-0.843-1.882-1.882-1.882v0h-2.152c-1.040 0-1.882-0.843-1.882-1.882v0-0.806c0-1.040 0.843-1.882 1.882-1.882v0h2.152c1.040 0 1.882-0.843 1.882-1.882v0-5.378c0-1.040 0.843-1.882 1.882-1.882v0h2.152c1.040 0 1.882-0.843 1.882-1.882v0-0.808c0-1.040 0.843-1.882 1.882-1.882v0h5.109c1.040 0 1.882 0.843 1.882 1.882v0 9.95c0 1.040 0.843 1.882 1.882 1.882v0h37.647c1.040 0 1.882-0.843 1.882-1.882v0-9.95c0-1.040 0.843-1.882 1.882-1.882v0h5.109c1.040 0 1.882 0.843 1.882 1.882v0 0.808c0 1.040 0.843 1.882 1.882 1.882v0h2.152c1.040 0 1.882 0.843 1.882 1.882v0 5.378c0 1.040 0.843 1.882 1.882 1.882v0h2.152z"></path>
        </symbol>
        <symbol id="icon-bubble" viewBox="0 0 32 32">
            <path
                d="M20.794 16.346c3.778 0 6.84-3.062 6.84-6.84s-3.062-6.84-6.84-6.84v0c-3.778 0-6.84 3.062-6.84 6.84s3.062 6.84 6.84 6.84v0zM8.475 25.92c2.268 0 4.107-1.839 4.107-4.107s-1.839-4.107-4.107-4.107v0c-2.233 0.045-4.026 1.867-4.026 4.106s1.793 4.061 4.022 4.106l0.004 0zM22.15 29.333c1.885 0 3.414-1.528 3.414-3.414s-1.528-3.414-3.414-3.414v0c-1.885 0-3.414 1.528-3.414 3.414s1.528 3.414 3.414 3.414v0z"></path>
        </symbol>
        <symbol id="icon-delete" viewBox="0 0 32 32">
            <path stroke-linejoin="round" stroke-linecap="round" stroke-miterlimit="4"
                stroke-width="2.4"
                d="M12 4h8M13.333 14v6.667M18.667 14v6.667M4 8h24M25.333 8l-0.934 14.026c-0.141 2.104-0.211 3.157-0.666 3.955-0.405 0.703-0.997 1.258-1.708 1.609l-0.023 0.010c-0.826 0.4-1.88 0.4-3.989 0.4h-4.026c-2.109 0-3.163 0-3.989-0.4-0.734-0.361-1.326-0.917-1.721-1.6l-0.010-0.019c-0.454-0.8-0.525-1.851-0.666-3.955l-0.934-14.026"></path>
        </symbol>
        <symbol id="icon-avatar" viewBox="0 0 32 32">
            <path
                d="M16 1.067c4.124 0 7.467 3.343 7.467 7.467s-3.343 7.467-7.467 7.467v0c-4.124 0-7.467-3.343-7.467-7.467s3.343-7.467 7.467-7.467v0zM16 30.933s14.933 0 14.933-3.733c0-4.48-7.279-9.333-14.933-9.333-7.652 0-14.933 4.853-14.933 9.333 0 3.733 14.933 3.733 14.933 3.733z"></path>
        </symbol>
        <symbol id="icon-avatar-bg" viewBox="0 0 32 32">
                <path stroke-linejoin="miter" stroke-linecap="butt" stroke-miterlimit="4" stroke-width="0.8649" d="M31.568 16c0 8.598-6.97 15.568-15.568 15.568s-15.568-6.97-15.568-15.568c0-8.598 6.97-15.568 15.568-15.568s15.568 6.97 15.568 15.568z"></path>
        </symbol>
        <symbol id="icon-settings" viewBox="0 0 32 32">
            <path fill="none" stroke-linejoin="round" stroke-linecap="round" stroke-miterlimit="4" stroke-width="2" d="M16 20c2.209 0 4-1.791 4-4s-1.791-4-4-4c-2.209 0-4 1.791-4 4s1.791 4 4 4z"></path>
            <path fill="none" stroke-linejoin="round" stroke-linecap="round" stroke-miterlimit="4" stroke-width="2" d="M24.97 19.636c-0.161 0.366-0.209 0.771-0.138 1.164s0.259 0.756 0.538 1.042l0.073 0.073c0.225 0.225 0.404 0.493 0.526 0.787s0.185 0.61 0.185 0.928c0 0.319-0.063 0.634-0.185 0.928s-0.301 0.562-0.526 0.787c-0.225 0.225-0.493 0.404-0.787 0.526s-0.61 0.185-0.928 0.185c-0.319 0-0.634-0.063-0.928-0.185s-0.562-0.301-0.787-0.526l-0.073-0.073c-0.286-0.279-0.648-0.467-1.042-0.538s-0.799-0.023-1.164 0.138c-0.359 0.154-0.664 0.409-0.88 0.734s-0.331 0.706-0.333 1.096v0.206c0 0.643-0.255 1.26-0.71 1.714s-1.071 0.71-1.714 0.71-1.259-0.255-1.714-0.71c-0.455-0.455-0.71-1.071-0.71-1.714v-0.109c-0.009-0.401-0.139-0.79-0.373-1.117s-0.56-0.575-0.936-0.714c-0.366-0.161-0.771-0.209-1.164-0.138s-0.756 0.259-1.042 0.538l-0.073 0.073c-0.225 0.225-0.493 0.404-0.787 0.526s-0.61 0.185-0.928 0.185c-0.319 0-0.634-0.063-0.928-0.185s-0.562-0.301-0.787-0.526c-0.225-0.225-0.404-0.493-0.526-0.787s-0.185-0.61-0.185-0.928c0-0.319 0.063-0.634 0.185-0.928s0.301-0.562 0.526-0.787l0.073-0.073c0.279-0.286 0.467-0.648 0.538-1.042s0.023-0.799-0.138-1.164c-0.154-0.359-0.409-0.664-0.734-0.88s-0.706-0.331-1.096-0.333h-0.206c-0.643 0-1.26-0.255-1.714-0.71s-0.71-1.071-0.71-1.714c0-0.643 0.255-1.259 0.71-1.714s1.071-0.71 1.714-0.71h0.109c0.401-0.009 0.79-0.139 1.117-0.373s0.575-0.56 0.714-0.936c0.161-0.366 0.209-0.771 0.138-1.164s-0.259-0.756-0.538-1.042l-0.073-0.073c-0.225-0.225-0.404-0.493-0.526-0.787s-0.185-0.61-0.185-0.928c0-0.319 0.063-0.634 0.185-0.928s0.301-0.562 0.526-0.787c0.225-0.225 0.493-0.404 0.787-0.526s0.61-0.185 0.928-0.185c0.319 0 0.634 0.063 0.928 0.185s0.562 0.301 0.787 0.526l0.073 0.073c0.286 0.279 0.649 0.467 1.042 0.538s0.799 0.023 1.164-0.138h0.097c0.358-0.154 0.664-0.409 0.88-0.734s0.331-0.706 0.332-1.096v-0.206c0-0.643 0.255-1.26 0.71-1.714s1.071-0.71 1.714-0.71 1.26 0.255 1.714 0.71c0.455 0.455 0.71 1.071 0.71 1.714v0.109c0.002 0.39 0.117 0.771 0.333 1.096s0.521 0.58 0.88 0.734c0.366 0.161 0.771 0.209 1.164 0.138s0.756-0.259 1.042-0.538l0.073-0.073c0.225-0.225 0.493-0.404 0.787-0.526s0.61-0.185 0.928-0.185c0.319 0 0.634 0.063 0.928 0.185s0.562 0.301 0.787 0.526c0.225 0.225 0.404 0.493 0.526 0.787s0.185 0.61 0.185 0.928c0 0.319-0.063 0.634-0.185 0.928s-0.301 0.562-0.526 0.787l-0.073 0.073c-0.279 0.286-0.467 0.649-0.538 1.042s-0.023 0.799 0.138 1.164v0.097c0.154 0.358 0.409 0.664 0.734 0.88s0.706 0.331 1.096 0.332h0.206c0.643 0 1.26 0.255 1.714 0.71s0.71 1.071 0.71 1.714-0.255 1.26-0.71 1.714c-0.455 0.455-1.071 0.71-1.714 0.71h-0.109c-0.39 0.002-0.771 0.117-1.096 0.333s-0.58 0.521-0.734 0.88z"></path>
        </symbol>
        <symbol id="icon-burger" viewBox="0 0 32 32">
            <path stroke-linejoin="round" stroke-linecap="round" stroke-miterlimit="4"
                stroke-width="3.2" d="M1.6 16h19.2M1.6 6.4h28.8M1.6 25.6h28.8"></path>
        </symbol>
        <symbol id="icon-cross" viewBox="0 0 32 32">
            <path stroke-linejoin="round" stroke-linecap="round" stroke-miterlimit="4"
                stroke-width="2.4615" d="M24 8l-16 16M8 8l16 16"></path>
        </symbol>
        <symbol id="icon-add" viewBox="0 0 32 32">
            <path stroke-linejoin="round" stroke-linecap="round" stroke-miterlimit="4"
                stroke-width="2.7733"
                d="M16 29.867l13.867-13.867M29.867 16l-13.867-13.867M29.867 16h-27.733"></path>
        </symbol>
        <symbol id="icon-add-avatar" viewBox="0 0 32 32">
            <path
                d="M11.231 0.57l4.024 1.164c0.452 0.131 0.932 0.132 1.384 0.003l4.175-1.189c1.127-0.321 2.326 0.181 2.889 1.208l2.18 3.982c0.224 0.409 0.558 0.748 0.964 0.978l3.39 1.92c1.028 0.582 1.511 1.803 1.159 2.931l-1.172 3.759c-0.151 0.484-0.152 1.002-0.002 1.487l1.191 3.86c0.344 1.114-0.125 2.318-1.132 2.906l-3.859 2.256c-0.404 0.236-0.734 0.581-0.953 0.995l-1.797 3.404c-0.545 1.033-1.731 1.553-2.86 1.255l-4.22-1.114c-0.423-0.112-0.868-0.111-1.291 0.002l-4.057 1.088c-1.155 0.31-2.369-0.239-2.899-1.311l-1.788-3.612c-0.236-0.476-0.617-0.866-1.088-1.112l-3.674-1.918c-1.048-0.547-1.572-1.752-1.258-2.893l1.075-3.896c0.118-0.429 0.121-0.882 0.006-1.313l-1.118-4.206c-0.295-1.111 0.201-2.28 1.206-2.838l3.831-2.131c0.429-0.239 0.778-0.598 1.005-1.033l1.765-3.385c0.552-1.059 1.775-1.582 2.922-1.25z"></path>
        </symbol>
        <symbol id="icon-exclamation-mark" viewBox="0 0 32 32">
            <path stroke-linejoin="round" stroke-linecap="round" stroke-miterlimit="4"
                stroke-width="4" d="M16 30v0.020M16 22v-20"></path>
        </symbol>
        <symbol id="icon-log-out" viewBox="0 0 32 32">
            <path fill-opacity="0" stroke-linejoin="round" stroke-linecap="round"
                stroke-miterlimit="4" stroke-width="2.4"
                d="M12 4h-1.6c-2.24 0-3.36 0-4.216 0.435-0.756 0.391-1.358 0.992-1.738 1.727l-0.011 0.022c-0.435 0.856-0.435 1.976-0.435 4.216v11.2c0 2.24 0 3.36 0.435 4.216 0.391 0.756 0.992 1.357 1.726 1.737l0.022 0.011c0.856 0.437 1.976 0.437 4.216 0.437h1.6M21.333 22.667l6.667-6.667M28 16l-6.667-6.667M28 16h-16"></path>
        </symbol>
        <symbol id="icon-gear" viewBox="0 0 32 32">
            <path stroke-linejoin="round" stroke-linecap="round" stroke-miterlimit="4"
                stroke-width="2.4615"
                d="M25.66 19.916c-0.116 0.256-0.183 0.555-0.183 0.869 0 0.586 0.234 1.118 0.614 1.507l-0-0 0.078 0.079c0.473 0.472 0.766 1.125 0.766 1.847s-0.293 1.374-0.766 1.847l-0 0c-0.473 0.473-1.125 0.765-1.847 0.765s-1.374-0.293-1.847-0.765l-0-0-0.079-0.078c-0.388-0.38-0.919-0.614-1.506-0.614-0.315 0-0.614 0.068-0.883 0.189l0.014-0.005c-0.771 0.337-1.301 1.091-1.305 1.97v0.222c0 1.442-1.169 2.611-2.611 2.611s-2.611-1.169-2.611-2.611v0-0.117c-0.022-0.902-0.596-1.665-1.396-1.966l-0.015-0.005c-0.256-0.116-0.555-0.183-0.869-0.183-0.586 0-1.118 0.234-1.506 0.614l0-0-0.079 0.078c-0.473 0.473-1.126 0.765-1.847 0.765-1.442 0-2.612-1.169-2.612-2.612 0-0.721 0.292-1.374 0.765-1.847l0.079-0.079c0.38-0.388 0.614-0.92 0.614-1.506 0-0.315-0.067-0.614-0.189-0.883l0.005 0.014c-0.337-0.771-1.092-1.301-1.971-1.305h-0.222c-1.442 0-2.611-1.169-2.611-2.611s1.169-2.611 2.611-2.611v0h0.117c0.903-0.022 1.666-0.595 1.967-1.396l0.005-0.015c0.116-0.256 0.183-0.555 0.183-0.869 0-0.586-0.234-1.118-0.614-1.506l-0.078-0.078c-0.473-0.473-0.765-1.126-0.765-1.847 0-1.443 1.17-2.612 2.612-2.612 0.721 0 1.375 0.292 1.847 0.765l0.078 0.078c0.388 0.38 0.92 0.614 1.506 0.614 0.315 0 0.614-0.067 0.883-0.189l-0.014 0.005h0.105c0.772-0.337 1.302-1.091 1.306-1.97v-0.222c0-1.442 1.169-2.61 2.61-2.61s2.61 1.169 2.61 2.61v0 0.117c0.003 0.88 0.534 1.635 1.292 1.966l0.014 0.005c0.256 0.116 0.555 0.183 0.869 0.183 0.586 0 1.118-0.234 1.506-0.614l0.078-0.078c0.473-0.473 1.126-0.765 1.847-0.765 1.442 0 2.612 1.169 2.612 2.612 0 0.721-0.292 1.374-0.765 1.847v0l-0.078 0.079c-0.38 0.388-0.614 0.92-0.614 1.506 0 0.315 0.067 0.614 0.189 0.883l-0.005-0.014v0.105c0.337 0.771 1.091 1.301 1.97 1.305h0.222c1.442 0 2.611 1.169 2.611 2.611s-1.169 2.611-2.611 2.611v0h-0.117c-0.879 0.003-1.634 0.533-1.965 1.291l-0.005 0.014z"></path>
        </symbol>
        <symbol id="icon-flame" viewBox="0 0 32 32">
            <path
                d="M16 22.291c-0.944 0.72-2.896 2.501-2.896 4.925 0 1.602 1.299 2.904 2.896 2.904s2.896-1.302 2.896-2.904c0-2.296-1.952-4.16-2.896-4.925z"></path>
            <path
                d="M22.789 5.57c-0.172-0.194-0.422-0.316-0.701-0.316-0.247 0-0.472 0.096-0.639 0.252l0.001-0-4.411 4.117v-8.624c0-0.72-0.87-1.259-1.523-0.864-0.123 0.074-3.056 1.864-6.016 5.115-3.605 3.95-6.058 8.765-6.058 14.163 0.002 6.941 5.634 12.587 12.558 12.587-2.637-0.007-4.771-2.146-4.771-4.784 0 0 0 0 0-0v0c0-4.261 4.138-6.784 4.314-6.891 0.137-0.083 0.303-0.132 0.48-0.132 0.192 0 0.37 0.058 0.519 0.157l-0.003-0.002c0.173 0.114 4.234 2.838 4.234 6.869 0 0 0 0 0 0 0 2.638-2.135 4.777-4.771 4.784h-0.001c6.923 0 12.557-5.648 12.557-12.587 0-5.242-2.314-9.938-5.768-13.843z"></path>
        </symbol>
        <symbol id="icon-calender-outline" viewBox="0 0 24 24">
            <path
                d="M19 6.184v-0.184c0-1.657-1.343-3-3-3s-3 1.343-3 3h-2c0-1.657-1.343-3-3-3s-3 1.343-3 3v0.184c-1.161 0.415-2 1.514-2 2.816v9c0 1.654 1.346 3 3 3h12c1.654 0 3-1.346 3-3v-9c0-1.302-0.839-2.401-2-2.816zM15 6c0-0.552 0.447-1 1-1s1 0.448 1 1v2c0 0.552-0.447 1-1 1s-1-0.448-1-1v-2zM7 6c0-0.552 0.447-1 1-1s1 0.448 1 1v2c0 0.552-0.447 1-1 1s-1-0.448-1-1v-2zM19 18c0 0.551-0.448 1-1 1h-12c-0.552 0-1-0.449-1-1v-6h14v6zM19 11h-14v-2c0-0.551 0.448-1 1-1 0 1.104 0.896 2 2 2s2-0.896 2-2h4c0 1.104 0.896 2 2 2s2-0.896 2-2c0.552 0 1 0.449 1 1v2z"></path>
        </symbol>
        <symbol id="icon-profile-calendar" viewBox="0 0 32 32">
            <path stroke-linejoin="round" stroke-linecap="round" stroke-miterlimit="4" stroke-width="2.6667" d="M25.333 5.333h-18.667c-1.473 0-2.667 1.194-2.667 2.667v18.667c0 1.473 1.194 2.667 2.667 2.667h18.667c1.473 0 2.667-1.194 2.667-2.667v-18.667c0-1.473-1.194-2.667-2.667-2.667z"></path>
            <path stroke-linejoin="round" stroke-linecap="round" stroke-miterlimit="4" stroke-width="2.6667" d="M21.333 2.667v5.333"></path>
            <path stroke-linejoin="round" stroke-linecap="round" stroke-miterlimit="4" stroke-width="2.6667" d="M10.667 2.667v5.333"></path>
            <path stroke-linejoin="round" stroke-linecap="round" stroke-miterlimit="4" stroke-width="2.6667" d="M4 13.333h24"></path>
        </symbol>
        <symbol id="icon-human" viewBox="0 0 32 32">
            <path
                d="M29.648 9.451c-0.219-0.26-0.545-0.424-0.909-0.424-0.29 0-0.556 0.104-0.762 0.277l0.002-0.002-3.28 2.757-1.51-3.739c-0.056-0.14-0.134-0.261-0.229-0.364l0.001 0.001c-0.321-0.716-0.875-1.281-1.563-1.608l-0.019-0.008c-0.32-0.146-0.651-0.224-0.982-0.262-0.072-0.038-0.139-0.088-0.222-0.114l-5.776-1.61c-0.093-0.026-0.199-0.041-0.31-0.041-0.223 0-0.432 0.062-0.611 0.169l0.005-0.003c-0.33 0.108-0.59 0.352-0.717 0.664l-0.003 0.008-2.174 5.592c-0.050 0.127-0.079 0.273-0.079 0.427 0 0.501 0.31 0.929 0.748 1.103l0.008 0.003c0.126 0.050 0.272 0.079 0.425 0.079 0.5 0 0.928-0.31 1.103-0.748l0.003-0.008 1.837-4.723 2.63 0.731c-0.064 0.104-0.133 0.202-0.186 0.312l-3.371 7.312c-0.048 0.107-0.075 0.216-0.11 0.326l-4.098 6.87-6.859 2.294c-0.42 0.323-0.687 0.826-0.687 1.391 0 0.968 0.784 1.752 1.752 1.752 0.381 0 0.733-0.122 1.021-0.328l-0.005 0.004 7.019-2.416c0.216-0.157 0.371-0.362 0.49-0.581 0.088-0.094 0.189-0.168 0.256-0.285l2.443-4.096 4.336 3.696-4.64 5.229c-0.273 0.307-0.439 0.714-0.439 1.16 0 0.967 0.784 1.751 1.751 1.751 0.521 0 0.99-0.228 1.31-0.589l0.002-0.002 5.79-6.523c0.179-0.202 0.288-0.432 0.36-0.675 0.043-0.133 0.043-0.269 0.053-0.406 0-0.069 0.027-0.131 0.021-0.195-0.009-0.509-0.239-0.963-0.598-1.272l-0.002-0.002-3.992-3.403c0.288-0.274 0.533-0.6 0.709-0.982l2.586-5.6 0.829 2.208c0.031 0.211 0.116 0.398 0.242 0.551l-0.002-0.002c0.121 0.138 0.273 0.247 0.445 0.314l0.008 0.003c0.018 0.008 0.038 0.010 0.059 0.016 0.096 0.040 0.208 0.069 0.325 0.080l0.005 0c0.024 0.002 0.052 0.003 0.081 0.003 0.116 0 0.227-0.017 0.332-0.050l-0.008 0.002h0.005c0.037-0.010 0.074-0.003 0.11-0.019 0.186-0.076 0.343-0.192 0.464-0.337l0.002-0.002 4.71-3.997c0.501-0.422 0.288-1.168-0.133-1.667zM23.69 6.602c1.823 0 3.301-1.478 3.301-3.301s-1.478-3.301-3.301-3.301v0c-1.823 0-3.301 1.478-3.301 3.301s1.478 3.301 3.301 3.301v0z"></path>
        </symbol>
        <symbol id="icon-dumbbell" viewBox="0 0 32 32">
            <path
                d="M5.2 8h-2.4c-0.001 0-0.002 0-0.003 0-0.661 0-1.197 0.536-1.197 1.197 0 0.001 0 0.002 0 0.003v-0 5.2h-1.2c-0.221 0-0.4 0.179-0.4 0.4v0 2.4c0 0.221 0.181 0.4 0.4 0.4h1.2v5.2c0 0.666 0.534 1.2 1.2 1.2h2.4c0.666 0 1.2-0.534 1.2-1.2v-13.6c0-0.001 0-0.002 0-0.003 0-0.661-0.536-1.197-1.197-1.197-0.001 0-0.002 0-0.003 0h0zM31.6 14.4h-1.2v-5.2c0-0.001 0-0.002 0-0.003 0-0.661-0.536-1.197-1.197-1.197-0.001 0-0.002 0-0.003 0h-2.4c-0.001 0-0.002 0-0.003 0-0.661 0-1.197 0.536-1.197 1.197 0 0.001 0 0.002 0 0.003v-0 13.6c0 0.666 0.534 1.2 1.2 1.2h2.4c0.666 0 1.2-0.534 1.2-1.2v-5.2h1.2c0.221 0 0.4-0.179 0.4-0.4v0-2.4c0-0.221-0.179-0.4-0.4-0.4v0zM22.8 4.8h-2.4c-0.001 0-0.002 0-0.003 0-0.661 0-1.197 0.536-1.197 1.197 0 0.001 0 0.002 0 0.003v-0 8.4h-6.4v-8.4c0-0.001 0-0.002 0-0.003 0-0.661-0.536-1.197-1.197-1.197-0.001 0-0.002 0-0.003 0h-2.4c-0.001 0-0.002 0-0.003 0-0.661 0-1.197 0.536-1.197 1.197 0 0.001 0 0.002 0 0.003v-0 20c0 0.666 0.534 1.2 1.2 1.2h2.4c0.666 0 1.2-0.534 1.2-1.2v-8.4h6.4v8.4c0 0.666 0.534 1.2 1.2 1.2h2.4c0.666 0 1.2-0.534 1.2-1.2v-20c0-0.001 0-0.002 0-0.003 0-0.661-0.536-1.197-1.197-1.197-0.001 0-0.002 0-0.003 0h0z"></path>
        </symbol>
        <symbol id="icon-cutlery" viewBox="0 0 32 32">
            <path
                d="M26 1c0.852 0 1.555 0.639 1.655 1.464l0.001 0.008 0.010 0.194v26.668c-0.019 0.906-0.758 1.634-1.668 1.634-0.841 0-1.536-0.622-1.651-1.431l-0.001-0.009-0.012-0.194v-8.334h-1.668c-0.851-0-1.554-0.639-1.653-1.464l-0.001-0.008-0.012-0.194v-10c0-3.684 2.5-8.334 5-8.334zM16 1c0 0 0.001 0 0.001 0 0.852 0 1.554 0.639 1.654 1.464l0.001 0.008 0.010 0.194v8.334c-0.001 3.090-2.102 5.688-4.953 6.445l-0.047 0.011v11.878c-0.003 0.918-0.748 1.66-1.666 1.66-0.85 0-1.551-0.636-1.653-1.458l-0.001-0.008-0.012-0.194v-11.878c-2.788-0.737-4.836-3.165-4.993-6.095l-0.001-0.017-0.006-0.344v-8.334c0.003-0.918 0.748-1.66 1.666-1.66 0.85 0 1.551 0.636 1.653 1.458l0.001 0.008 0.012 0.194v8.334c0.001 1.227 0.664 2.299 1.652 2.877l0.016 0.009v-11.22c0.003-0.918 0.748-1.66 1.666-1.66 0.85 0 1.551 0.636 1.653 1.458l0.001 0.008 0.012 0.194 0.002 11.22c0.923-0.54 1.556-1.489 1.653-2.591l0.001-0.013 0.012-0.282v-8.334c0-0.92 0.746-1.666 1.666-1.666v0z"></path>
        </symbol>
        <symbol id="icon-apple" viewBox="0 0 32 32">
            <path
                d="M20.318 1.948c0.414-0.128 0.71-0.508 0.71-0.957 0-0.552-0.448-1-1-1-0.123 0-0.242 0.022-0.351 0.063l0.007-0.002c-1.876 0.624-3.044 2.164-3.732 3.814-0.067 0.151-0.153 0.376-0.232 0.604l-0.022 0.074c-0.899-1.682-2.331-2.979-4.066-3.685l-0.054-0.019c-0.872-0.357-1.885-0.564-2.946-0.564-0.083 0-0.166 0.001-0.249 0.004l0.012-0c-1.16 0.032-2.086 0.96-2.118 2.118-0.002 0.069-0.003 0.15-0.003 0.231 0 2.207 0.896 4.204 2.343 5.649l0 0 0.062 0.060c-3.422 0.76-5.991 3.634-6.282 7.153l-0.002 0.029-0.012 0.148c-0.035 0.407-0.054 0.88-0.054 1.358 0 2.984 0.769 5.788 2.119 8.225l-0.044-0.087 0.72 1.316c0.020 0.034 0.040 0.068 0.064 0.1l2 2.804c0.986 1.368 2.576 2.248 4.37 2.248 1.483 0 2.825-0.601 3.798-1.572l-0 0c0.165-0.166 0.393-0.268 0.645-0.268s0.48 0.102 0.645 0.268l0 0c0.972 0.973 2.315 1.575 3.798 1.575 1.795 0 3.384-0.881 4.359-2.235l0.011-0.016 2-2.802c0.021-0.029 0.042-0.062 0.061-0.097l0.003-0.005 0.718-1.316c1.306-2.35 2.074-5.154 2.074-8.138 0-0.478-0.020-0.951-0.058-1.42l0.004 0.061-0.010-0.148c-0.339-4.135-3.778-7.362-7.971-7.362-0.466 0-0.923 0.040-1.367 0.116l0.048-0.007-3.314 0.552c0.020-1.362 0.26-2.894 0.798-4.186 0.56-1.35 1.392-2.31 2.516-2.686h0.002zM9.818 13.948c-0.628 0.203-1.134 0.636-1.428 1.197l-0.006 0.013c-0.37 0.696-0.624 1.844-0.39 3.718 0.003 0.030 0.005 0.065 0.005 0.101 0 0.552-0.448 1-1 1-0.5 0-0.915-0.367-0.988-0.847l-0.001-0.006c-0.266-2.128-0.020-3.73 0.61-4.908 0.64-1.2 1.614-1.848 2.566-2.166 0.094-0.032 0.203-0.051 0.316-0.051 0.552 0 1 0.448 1 1 0 0.439-0.283 0.813-0.677 0.947l-0.007 0.002z"></path>
        </symbol>
        <symbol id="icon-icon" viewBox="0 0 32 32">
            <path stroke-linejoin="round" stroke-linecap="round" stroke-miterlimit="4"
                stroke-width="4.16" d="M5.331 28.8v-25.6M26.666 28.8v-25.6"></path>
        </symbol>
        <symbol id="icon-date" viewBox="0 0 32 32">
            <path stroke-linejoin="round" stroke-linecap="round" stroke-miterlimit="4"
                stroke-width="2.6667"
                d="M25.333 5.333h-18.667c-1.473 0-2.667 1.194-2.667 2.667v0 18.667c0 1.473 1.194 2.667 2.667 2.667v0h18.667c1.473 0 2.667-1.194 2.667-2.667v0-18.667c0-1.473-1.194-2.667-2.667-2.667v0zM21.333 2.667v5.333M10.667 2.667v5.333M4 13.333h24"></path>
        </symbol>
        <symbol id="icon-search" viewBox="0 0 32 32">
            <path
                d="M28.948 27.054l-4.948-4.907c1.644-2.036 2.639-4.656 2.639-7.508 0-6.627-5.373-12-12-12s-12 5.373-12 12c0 6.627 5.373 12 12 12 2.852 0 5.472-0.995 7.531-2.657l-0.023 0.018 4.907 4.907c0.242 0.244 0.577 0.394 0.947 0.394s0.705-0.151 0.947-0.394l0-0c0.232-0.24 0.374-0.566 0.374-0.926s-0.143-0.687-0.375-0.927l0 0zM14.667 24c-5.155 0-9.333-4.179-9.333-9.333s4.179-9.333 9.333-9.333v0c5.155 0 9.333 4.179 9.333 9.333s-4.179 9.333-9.333 9.333v0z"></path>
        </symbol>
        <symbol id="icon-line" viewBox="0 0 87 32">
             <path fill="none" stroke="#ef8964" style="stroke: var(--color1, #ef8964)" stroke-linejoin="round" stroke-linecap="round" stroke-miterlimit="4" stroke-width="1.7297" d="M60.717 0.865c-20.169 0.292-64.211 3.812-59.502 21.728 4.232 12.649 64.534 9.932 79.413 0.414s-5.555-19.422-34.037-15.916"></path>
        </symbol>
        <symbol id="icon-polygon" viewBox="0 0 24 32">
             <path fill="#efede8" style="fill: var(--color1, #efede8)" d="M24 16l-24 13.857v-27.713l24 13.856z"></path>
        </symbol>
        <symbol id="icon-logo-text" viewBox="0 0 188 32">
            <path fill="#efede8" style="fill: var(--color1, #efede8)"
                d="M0 29.873v-26.353h9.412c1.431 0 2.723 0.358 3.878 1.073 1.167 0.715 2.089 1.675 2.767 2.88s1.016 2.529 1.016 3.972c0 1.481-0.351 2.824-1.054 4.028-0.69 1.192-1.619 2.146-2.786 2.861-1.167 0.703-2.441 1.054-3.821 1.054h-4.819v10.485h-4.593zM4.593 14.795h4.329c0.653 0 1.249-0.163 1.788-0.489s0.966-0.765 1.28-1.318c0.326-0.552 0.489-1.167 0.489-1.845 0-0.69-0.163-1.311-0.489-1.864-0.314-0.552-0.74-0.991-1.28-1.318s-1.136-0.489-1.788-0.489h-4.329v7.322z"></path>
            <path fill="#efede8" style="fill: var(--color1, #efede8)"
                d="M27.51 30.362c-1.732 0-3.313-0.446-4.744-1.336-1.418-0.891-2.554-2.083-3.407-3.576-0.841-1.506-1.261-3.169-1.261-4.988 0-1.38 0.245-2.667 0.734-3.859 0.489-1.205 1.161-2.259 2.014-3.162 0.866-0.916 1.87-1.631 3.012-2.146s2.359-0.772 3.652-0.772c1.732 0 3.307 0.445 4.725 1.336 1.431 0.891 2.566 2.089 3.407 3.595 0.853 1.506 1.28 3.175 1.28 5.007 0 1.368-0.245 2.648-0.734 3.84s-1.167 2.246-2.033 3.162c-0.853 0.904-1.851 1.613-2.993 2.127-1.129 0.514-2.347 0.772-3.652 0.772zM27.51 25.769c0.916 0 1.738-0.245 2.466-0.734s1.299-1.136 1.713-1.939c0.427-0.803 0.64-1.681 0.64-2.635 0-0.979-0.219-1.87-0.659-2.673-0.427-0.816-1.010-1.462-1.751-1.939-0.728-0.489-1.531-0.734-2.409-0.734-0.904 0-1.719 0.245-2.447 0.734s-1.305 1.142-1.732 1.958c-0.427 0.816-0.64 1.7-0.64 2.654 0 0.991 0.22 1.889 0.659 2.692s1.023 1.443 1.751 1.92c0.741 0.464 1.544 0.696 2.409 0.696z"></path>
            <path fill="#efede8" style="fill: var(--color1, #efede8)"
                d="M48.683 29.873h-4.555l-6.287-18.824h4.499l4.085 12.179 4.066-12.179h4.536l4.066 12.179 4.085-12.179h4.499l-6.287 18.824h-4.555l-4.085-12.235-4.066 12.235z"></path>
            <path fill="#efede8" style="fill: var(--color1, #efede8)"
                d="M78.025 30.362c-1.732 0-3.313-0.446-4.744-1.336-1.418-0.891-2.554-2.089-3.407-3.595-0.841-1.506-1.261-3.169-1.261-4.988 0-1.368 0.245-2.648 0.734-3.84 0.489-1.205 1.161-2.259 2.014-3.162 0.866-0.916 1.87-1.631 3.012-2.146s2.359-0.772 3.652-0.772c1.468 0 2.811 0.314 4.028 0.941 1.23 0.615 2.271 1.462 3.125 2.541s1.474 2.309 1.864 3.689c0.389 1.38 0.477 2.824 0.264 4.329h-13.76c0.176 0.703 0.464 1.336 0.866 1.901 0.401 0.552 0.91 0.998 1.525 1.336 0.615 0.326 1.311 0.496 2.089 0.508 0.803 0.013 1.531-0.176 2.184-0.565 0.665-0.401 1.217-0.941 1.656-1.619l4.687 1.092c-0.766 1.669-1.908 3.037-3.426 4.104-1.519 1.054-3.219 1.581-5.101 1.581zM73.394 18.579h9.261c-0.138-0.753-0.433-1.431-0.885-2.033-0.439-0.615-0.985-1.104-1.638-1.468s-1.355-0.546-2.108-0.546-1.449 0.182-2.089 0.546c-0.64 0.351-1.186 0.835-1.638 1.449-0.439 0.602-0.741 1.286-0.904 2.052z"></path>
            <path fill="#efede8" style="fill: var(--color1, #efede8)"
                d="M90.386 29.873l-0.019-18.824h4.593l0.019 1.675c0.64-0.678 1.406-1.211 2.296-1.6 0.891-0.402 1.851-0.602 2.88-0.602 0.69 0 1.38 0.1 2.071 0.301l-1.807 4.631c-0.477-0.188-0.954-0.282-1.431-0.282-0.74 0-1.418 0.182-2.033 0.546-0.602 0.351-1.086 0.834-1.449 1.449-0.351 0.602-0.527 1.274-0.527 2.014v10.692h-4.593z"></path>
            <path fill="#efede8" style="fill: var(--color1, #efede8)"
                d="M104.338 29.873v-26.353h9.412c1.431 0 2.723 0.358 3.878 1.073 1.167 0.715 2.089 1.675 2.767 2.88s1.016 2.529 1.016 3.972c0 1.481-0.351 2.824-1.054 4.028-0.69 1.192-1.619 2.146-2.786 2.861-1.167 0.703-2.441 1.054-3.821 1.054h-4.819v10.485h-4.593zM108.931 14.795h4.329c0.653 0 1.249-0.163 1.788-0.489s0.966-0.765 1.28-1.318c0.326-0.552 0.489-1.167 0.489-1.845 0-0.69-0.163-1.311-0.489-1.864-0.314-0.552-0.74-0.991-1.28-1.318s-1.136-0.489-1.788-0.489h-4.329v7.322z"></path>
            <path fill="#efede8" style="fill: var(--color1, #efede8)"
                d="M123.365 22.908v-11.859h4.593v10.654c0 0.74 0.182 1.418 0.546 2.033 0.364 0.602 0.847 1.086 1.449 1.449 0.615 0.351 1.286 0.527 2.014 0.527 0.753 0 1.431-0.176 2.033-0.527 0.602-0.364 1.086-0.847 1.449-1.449 0.364-0.615 0.546-1.293 0.546-2.033v-10.654h4.593l0.019 18.824h-4.593l-0.019-1.713c-0.653 0.678-1.424 1.217-2.315 1.619-0.891 0.389-1.845 0.584-2.861 0.584-1.368 0-2.616-0.333-3.746-0.998-1.129-0.678-2.033-1.575-2.711-2.692-0.665-1.129-0.998-2.384-0.998-3.765z"></path>
            <path fill="#efede8" style="fill: var(--color1, #efede8)"
                d="M144.485 29.873v-28.235h4.593v28.235h-4.593z"></path>
            <path fill="#efede8" style="fill: var(--color1, #efede8)"
                d="M159.156 30.212c-0.979-0.063-1.926-0.257-2.842-0.584-0.904-0.339-1.707-0.797-2.409-1.374s-1.242-1.267-1.619-2.071l3.878-1.656c0.151 0.251 0.395 0.521 0.734 0.809 0.339 0.276 0.74 0.508 1.205 0.696 0.477 0.188 0.998 0.282 1.562 0.282 0.477 0 0.929-0.063 1.355-0.188 0.439-0.138 0.791-0.345 1.054-0.621 0.276-0.276 0.414-0.634 0.414-1.073 0-0.464-0.163-0.822-0.489-1.073-0.314-0.264-0.715-0.458-1.205-0.584-0.477-0.138-0.941-0.264-1.393-0.376-1.192-0.238-2.303-0.609-3.332-1.111-1.016-0.502-1.839-1.148-2.466-1.939-0.615-0.803-0.922-1.769-0.922-2.899 0-1.242 0.326-2.315 0.979-3.219 0.665-0.904 1.525-1.6 2.579-2.089 1.067-0.489 2.215-0.734 3.445-0.734 1.493 0 2.861 0.314 4.104 0.941 1.255 0.615 2.246 1.487 2.974 2.616l-3.633 2.146c-0.176-0.301-0.421-0.577-0.734-0.828-0.314-0.264-0.671-0.477-1.073-0.64-0.402-0.176-0.822-0.276-1.261-0.301-0.565-0.025-1.079 0.025-1.544 0.151s-0.841 0.339-1.129 0.64c-0.276 0.301-0.414 0.703-0.414 1.205 0 0.477 0.188 0.834 0.565 1.073 0.376 0.226 0.828 0.402 1.355 0.527 0.539 0.125 1.054 0.264 1.544 0.414 1.104 0.364 2.139 0.809 3.106 1.336 0.979 0.527 1.763 1.173 2.353 1.939s0.872 1.681 0.847 2.748c0 1.217-0.364 2.284-1.092 3.2-0.728 0.904-1.669 1.594-2.824 2.071-1.142 0.477-2.366 0.665-3.671 0.565z"></path>
            <path fill="#efede8" style="fill: var(--color1, #efede8)"
                d="M177.951 30.362c-1.732 0-3.313-0.446-4.744-1.336-1.418-0.891-2.554-2.089-3.407-3.595-0.841-1.506-1.261-3.169-1.261-4.988 0-1.368 0.245-2.648 0.734-3.84 0.489-1.205 1.161-2.259 2.014-3.162 0.866-0.916 1.87-1.631 3.012-2.146s2.359-0.772 3.652-0.772c1.468 0 2.811 0.314 4.028 0.941 1.23 0.615 2.271 1.462 3.125 2.541s1.475 2.309 1.864 3.689c0.389 1.38 0.477 2.824 0.264 4.329h-13.76c0.176 0.703 0.464 1.336 0.866 1.901 0.402 0.552 0.91 0.998 1.525 1.336 0.615 0.326 1.311 0.496 2.089 0.508 0.803 0.013 1.531-0.176 2.184-0.565 0.665-0.401 1.217-0.941 1.656-1.619l4.687 1.092c-0.766 1.669-1.907 3.037-3.426 4.104-1.518 1.054-3.219 1.581-5.101 1.581zM173.321 18.579h9.261c-0.138-0.753-0.433-1.431-0.885-2.033-0.439-0.615-0.985-1.104-1.638-1.468s-1.355-0.546-2.108-0.546-1.449 0.182-2.089 0.546c-0.64 0.351-1.186 0.835-1.638 1.449-0.439 0.602-0.74 1.286-0.904 2.052z"></path>
        </symbol>
        <symbol id="icon-pause" viewBox="0 0 32 32">
            <path fill="#e6533c"
                style="fill: var(--color1, #e6533c); stroke: var(--color1, #e6533c)"
                stroke="#e6533c" stroke-linejoin="round" stroke-linecap="round"
                stroke-miterlimit="4" stroke-width="1"
                d="M4 10.4c0-2.24 0-3.36 0.436-4.216 0.383-0.753 0.995-1.365 1.748-1.748 0.856-0.436 1.976-0.436 4.216-0.436h11.2c2.24 0 3.36 0 4.216 0.436 0.753 0.383 1.364 0.995 1.748 1.748 0.436 0.856 0.436 1.976 0.436 4.216v11.2c0 2.24 0 3.36-0.436 4.216-0.384 0.753-0.995 1.364-1.748 1.748-0.856 0.436-1.976 0.436-4.216 0.436h-11.2c-2.24 0-3.36 0-4.216-0.436-0.753-0.384-1.365-0.995-1.748-1.748-0.436-0.856-0.436-1.976-0.436-4.216v-11.2z"></path>
            <path fill="none" stroke="#efede8" style="stroke: var(--color2, #efede8)"
                stroke-linejoin="round" stroke-linecap="round" stroke-miterlimit="4"
                stroke-width="1.3" d="M12.666 20v-8M19.333 20v-8"></path>
        </symbol>
        <symbol id="icon-play" viewBox="0 0 32 32">
            <path fill="#e6533c"
                style="fill: var(--color1, #e6533c); stroke: var(--color1, #e6533c)"
                stroke="#e6533c" stroke-linejoin="round" stroke-linecap="round"
                stroke-miterlimit="4" stroke-width="1"
                d="M4 10.4c0-2.24 0-3.36 0.436-4.216 0.383-0.753 0.995-1.365 1.748-1.748 0.856-0.436 1.976-0.436 4.216-0.436h11.2c2.24 0 3.36 0 4.216 0.436 0.753 0.383 1.364 0.995 1.748 1.748 0.436 0.856 0.436 1.976 0.436 4.216v11.2c0 2.24 0 3.36-0.436 4.216-0.384 0.753-0.995 1.364-1.748 1.748-0.856 0.436-1.976 0.436-4.216 0.436h-11.2c-2.24 0-3.36 0-4.216-0.436-0.753-0.384-1.365-0.995-1.748-1.748-0.436-0.856-0.436-1.976-0.436-4.216v-11.2z"></path>
            <path fill="#efede8"
                style="fill: var(--color2, #efede8); stroke: var(--color2, #efede8)"
                stroke="#efede8" stroke-linejoin="round" stroke-linecap="round"
                stroke-miterlimit="4" stroke-width="1.3"
                d="M11.917 10.75l8.167 5.25-8.167 5.25v-10.5z"></path>
        </symbol>
      <symbol id="icon-logo-text-sm" viewBox="0 0 202 32">
<path  d="M0 30.266v-27.099h10.14c1.541 0 2.934 0.368 4.178 1.103 1.257 0.736 2.251 1.723 2.981 2.962s1.095 2.6 1.095 4.084c0 1.523-0.379 2.903-1.136 4.142-0.744 1.226-1.744 2.207-3.002 2.942-1.257 0.723-2.63 1.084-4.117 1.084h-5.192v10.782h-4.948zM4.948 14.761h4.665c0.703 0 1.345-0.168 1.927-0.503s1.041-0.787 1.379-1.355c0.352-0.568 0.527-1.2 0.527-1.897 0-0.71-0.176-1.349-0.527-1.916-0.338-0.568-0.798-1.019-1.379-1.355s-1.224-0.503-1.927-0.503h-4.665v7.53z"></path>
<path  d="M29.64 30.769c-1.866 0-3.569-0.458-5.111-1.374-1.528-0.916-2.751-2.142-3.671-3.678-0.906-1.549-1.359-3.258-1.359-5.13 0-1.419 0.264-2.742 0.791-3.968 0.527-1.239 1.251-2.323 2.17-3.252 0.933-0.942 2.015-1.678 3.245-2.207s2.542-0.794 3.934-0.794c1.866 0 3.563 0.458 5.090 1.374 1.541 0.916 2.765 2.149 3.671 3.697 0.919 1.549 1.379 3.265 1.379 5.149 0 1.407-0.264 2.723-0.791 3.949s-1.257 2.31-2.19 3.252c-0.919 0.929-1.994 1.658-3.225 2.187-1.217 0.529-2.528 0.794-3.935 0.794zM29.64 26.046c0.987 0 1.873-0.252 2.657-0.755s1.399-1.168 1.846-1.994c0.46-0.826 0.689-1.729 0.689-2.71 0-1.007-0.237-1.923-0.71-2.749-0.46-0.839-1.088-1.503-1.886-1.994-0.784-0.503-1.649-0.755-2.596-0.755-0.973 0-1.852 0.252-2.636 0.755s-1.406 1.174-1.866 2.013c-0.46 0.839-0.69 1.749-0.69 2.729 0 1.019 0.237 1.942 0.71 2.768s1.102 1.484 1.886 1.974c0.798 0.478 1.663 0.716 2.596 0.716z"></path>
<path  d="M52.452 30.266h-4.908l-6.774-19.357h4.847l4.401 12.524 4.381-12.524h4.888l4.381 12.524 4.401-12.524h4.847l-6.774 19.357h-4.908l-4.401-12.582-4.381 12.582z"></path>
<path  d="M84.064 30.769c-1.866 0-3.569-0.458-5.111-1.374-1.528-0.916-2.752-2.149-3.671-3.697-0.906-1.549-1.359-3.258-1.359-5.13 0-1.407 0.264-2.723 0.791-3.949 0.527-1.239 1.251-2.323 2.17-3.252 0.933-0.942 2.015-1.678 3.245-2.207s2.542-0.794 3.935-0.794c1.582 0 3.029 0.323 4.34 0.968 1.325 0.632 2.447 1.503 3.367 2.613s1.589 2.374 2.008 3.794c0.419 1.419 0.514 2.904 0.284 4.452h-14.825c0.189 0.723 0.5 1.374 0.933 1.955 0.433 0.568 0.98 1.026 1.643 1.374 0.662 0.335 1.413 0.51 2.251 0.523 0.865 0.013 1.649-0.181 2.353-0.581 0.717-0.413 1.311-0.968 1.785-1.665l5.050 1.123c-0.825 1.716-2.055 3.123-3.691 4.22-1.636 1.084-3.468 1.626-5.496 1.626zM79.075 18.652h9.978c-0.149-0.774-0.466-1.471-0.953-2.091-0.473-0.632-1.061-1.136-1.764-1.51s-1.46-0.561-2.272-0.561-1.562 0.187-2.251 0.561c-0.689 0.361-1.278 0.858-1.764 1.49-0.473 0.619-0.798 1.323-0.974 2.11z"></path>
<path  d="M97.383 30.266l-0.020-19.357h4.948l0.020 1.723c0.689-0.697 1.514-1.245 2.474-1.645 0.96-0.413 1.994-0.619 3.103-0.619 0.744 0 1.487 0.103 2.231 0.31l-1.947 4.762c-0.514-0.194-1.027-0.29-1.541-0.29-0.798 0-1.528 0.187-2.19 0.561-0.649 0.361-1.169 0.858-1.562 1.491-0.379 0.619-0.568 1.31-0.568 2.071v10.995h-4.948z"></path>
<path  d="M112.415 30.266v-27.099h10.14c1.541 0 2.934 0.368 4.178 1.103 1.257 0.736 2.251 1.723 2.981 2.962s1.095 2.6 1.095 4.084c0 1.523-0.379 2.903-1.136 4.142-0.744 1.226-1.744 2.207-3.002 2.942-1.257 0.723-2.63 1.084-4.117 1.084h-5.192v10.782h-4.948zM117.363 14.761h4.665c0.703 0 1.345-0.168 1.927-0.503s1.041-0.787 1.379-1.355c0.352-0.568 0.527-1.2 0.527-1.897 0-0.71-0.176-1.349-0.527-1.916-0.338-0.568-0.798-1.019-1.379-1.355s-1.224-0.503-1.927-0.503h-4.665v7.53z"></path>
<path  d="M132.914 23.104v-12.195h4.948v10.956c0 0.761 0.196 1.458 0.588 2.091 0.392 0.619 0.913 1.116 1.562 1.491 0.663 0.361 1.386 0.542 2.17 0.542 0.811 0 1.541-0.181 2.19-0.542 0.649-0.374 1.169-0.871 1.562-1.491 0.392-0.632 0.588-1.329 0.588-2.091v-10.956h4.948l0.020 19.357h-4.948l-0.020-1.761c-0.703 0.697-1.535 1.252-2.495 1.665-0.96 0.4-1.988 0.6-3.083 0.6-1.474 0-2.819-0.342-4.036-1.026-1.217-0.697-2.19-1.619-2.92-2.768-0.717-1.161-1.075-2.452-1.075-3.871z"></path>
<path  d="M155.669 30.266v-29.035h4.948v29.035h-4.948z"></path>
<path  d="M171.475 30.614c-1.055-0.064-2.075-0.265-3.062-0.6-0.973-0.348-1.839-0.819-2.596-1.413s-1.339-1.303-1.744-2.129l4.178-1.703c0.162 0.258 0.426 0.535 0.791 0.832 0.365 0.284 0.798 0.523 1.298 0.716 0.514 0.194 1.075 0.29 1.683 0.29 0.514 0 1-0.064 1.46-0.193 0.473-0.142 0.852-0.355 1.136-0.639 0.297-0.284 0.446-0.652 0.446-1.104 0-0.477-0.176-0.845-0.527-1.103-0.338-0.271-0.771-0.471-1.298-0.6-0.514-0.142-1.014-0.271-1.501-0.387-1.284-0.245-2.481-0.626-3.59-1.142-1.095-0.516-1.981-1.181-2.657-1.994-0.662-0.826-0.994-1.82-0.994-2.981 0-1.278 0.351-2.381 1.055-3.31 0.717-0.929 1.643-1.645 2.778-2.149 1.149-0.503 2.386-0.755 3.711-0.755 1.609 0 3.083 0.323 4.421 0.968 1.352 0.632 2.42 1.529 3.204 2.691l-3.914 2.207c-0.189-0.31-0.453-0.594-0.791-0.852-0.338-0.271-0.723-0.49-1.156-0.658-0.433-0.181-0.886-0.284-1.359-0.31-0.608-0.026-1.163 0.026-1.663 0.155s-0.906 0.348-1.217 0.658c-0.298 0.31-0.446 0.723-0.446 1.239 0 0.49 0.203 0.858 0.608 1.103 0.406 0.232 0.892 0.413 1.46 0.542 0.581 0.129 1.136 0.271 1.663 0.426 1.19 0.374 2.305 0.832 3.346 1.374 1.055 0.542 1.9 1.207 2.535 1.994s0.94 1.729 0.912 2.826c0 1.252-0.392 2.349-1.176 3.291-0.784 0.929-1.798 1.639-3.042 2.129-1.23 0.49-2.548 0.684-3.955 0.581z"></path>
<path  d="M191.726 30.769c-1.866 0-3.569-0.458-5.111-1.374-1.528-0.916-2.751-2.149-3.671-3.697-0.906-1.549-1.359-3.258-1.359-5.13 0-1.407 0.264-2.723 0.791-3.949 0.527-1.239 1.251-2.323 2.17-3.252 0.933-0.942 2.015-1.678 3.245-2.207s2.542-0.794 3.935-0.794c1.582 0 3.028 0.323 4.34 0.968 1.325 0.632 2.447 1.503 3.367 2.613s1.589 2.374 2.008 3.794c0.419 1.419 0.514 2.904 0.284 4.452h-14.825c0.189 0.723 0.5 1.374 0.933 1.955 0.433 0.568 0.98 1.026 1.643 1.374 0.662 0.335 1.413 0.51 2.251 0.523 0.865 0.013 1.649-0.181 2.352-0.581 0.717-0.413 1.311-0.968 1.785-1.665l5.050 1.123c-0.825 1.716-2.055 3.123-3.691 4.22-1.636 1.084-3.468 1.626-5.496 1.626zM186.737 18.652h9.978c-0.149-0.774-0.466-1.471-0.953-2.091-0.473-0.632-1.061-1.136-1.764-1.51s-1.46-0.561-2.271-0.561c-0.811 0-1.562 0.187-2.251 0.561-0.69 0.361-1.278 0.858-1.764 1.49-0.473 0.619-0.798 1.323-0.974 2.11z"></path>
</symbol>
<symbol id="icon-logo-text-lg" viewBox="0 0 188 32">
<path  d="M0 29.873v-26.353h9.412c1.431 0 2.723 0.358 3.878 1.073 1.167 0.715 2.089 1.675 2.767 2.88s1.016 2.529 1.016 3.972c0 1.481-0.351 2.824-1.054 4.028-0.69 1.192-1.619 2.146-2.786 2.861-1.167 0.703-2.441 1.054-3.821 1.054h-4.819v10.485h-4.593zM4.593 14.795h4.329c0.653 0 1.249-0.163 1.788-0.489s0.966-0.765 1.28-1.318c0.326-0.552 0.489-1.167 0.489-1.845 0-0.69-0.163-1.311-0.489-1.864-0.314-0.552-0.74-0.991-1.28-1.318s-1.136-0.489-1.788-0.489h-4.329v7.322z"></path>
<path  d="M27.51 30.362c-1.732 0-3.313-0.446-4.744-1.336-1.418-0.891-2.554-2.083-3.407-3.576-0.841-1.506-1.261-3.169-1.261-4.988 0-1.38 0.245-2.667 0.734-3.859 0.489-1.205 1.161-2.259 2.014-3.162 0.866-0.916 1.87-1.631 3.012-2.146s2.359-0.772 3.652-0.772c1.732 0 3.307 0.445 4.725 1.336 1.431 0.891 2.566 2.089 3.407 3.595 0.853 1.506 1.28 3.175 1.28 5.007 0 1.368-0.245 2.648-0.734 3.84s-1.167 2.246-2.033 3.162c-0.853 0.904-1.851 1.613-2.993 2.127-1.129 0.514-2.347 0.772-3.652 0.772zM27.51 25.769c0.916 0 1.738-0.245 2.466-0.734s1.299-1.136 1.713-1.939c0.427-0.803 0.64-1.681 0.64-2.635 0-0.979-0.219-1.87-0.659-2.673-0.427-0.816-1.010-1.462-1.751-1.939-0.728-0.489-1.531-0.734-2.409-0.734-0.904 0-1.719 0.245-2.447 0.734s-1.305 1.142-1.732 1.958c-0.427 0.816-0.64 1.7-0.64 2.654 0 0.991 0.22 1.889 0.659 2.692s1.023 1.443 1.751 1.92c0.741 0.464 1.544 0.696 2.409 0.696z"></path>
<path  d="M48.683 29.873h-4.555l-6.287-18.824h4.499l4.085 12.179 4.066-12.179h4.536l4.066 12.179 4.085-12.179h4.499l-6.287 18.824h-4.555l-4.085-12.235-4.066 12.235z"></path>
<path  d="M78.025 30.362c-1.732 0-3.313-0.446-4.744-1.336-1.418-0.891-2.554-2.089-3.407-3.595-0.841-1.506-1.261-3.169-1.261-4.988 0-1.368 0.245-2.648 0.734-3.84 0.489-1.205 1.161-2.259 2.014-3.162 0.866-0.916 1.87-1.631 3.012-2.146s2.359-0.772 3.652-0.772c1.468 0 2.811 0.314 4.028 0.941 1.23 0.615 2.271 1.462 3.125 2.541s1.474 2.309 1.864 3.689c0.389 1.38 0.477 2.824 0.264 4.329h-13.76c0.176 0.703 0.464 1.336 0.866 1.901 0.401 0.552 0.91 0.998 1.525 1.336 0.615 0.326 1.311 0.496 2.089 0.508 0.803 0.013 1.531-0.176 2.184-0.565 0.665-0.401 1.217-0.941 1.656-1.619l4.687 1.092c-0.766 1.669-1.908 3.037-3.426 4.104-1.519 1.054-3.219 1.581-5.101 1.581zM73.394 18.579h9.261c-0.138-0.753-0.433-1.431-0.885-2.033-0.439-0.615-0.985-1.104-1.638-1.468s-1.355-0.546-2.108-0.546-1.449 0.182-2.089 0.546c-0.64 0.351-1.186 0.835-1.638 1.449-0.439 0.602-0.741 1.286-0.904 2.052z"></path>
<path  d="M90.386 29.873l-0.019-18.824h4.593l0.019 1.675c0.64-0.678 1.406-1.211 2.296-1.6 0.891-0.402 1.851-0.602 2.88-0.602 0.69 0 1.38 0.1 2.071 0.301l-1.807 4.631c-0.477-0.188-0.954-0.282-1.431-0.282-0.74 0-1.418 0.182-2.033 0.546-0.602 0.351-1.086 0.834-1.449 1.449-0.351 0.602-0.527 1.274-0.527 2.014v10.692h-4.593z"></path>
<path  d="M104.338 29.873v-26.353h9.412c1.431 0 2.723 0.358 3.878 1.073 1.167 0.715 2.089 1.675 2.767 2.88s1.016 2.529 1.016 3.972c0 1.481-0.351 2.824-1.054 4.028-0.69 1.192-1.619 2.146-2.786 2.861-1.167 0.703-2.441 1.054-3.821 1.054h-4.819v10.485h-4.593zM108.931 14.795h4.329c0.653 0 1.249-0.163 1.788-0.489s0.966-0.765 1.28-1.318c0.326-0.552 0.489-1.167 0.489-1.845 0-0.69-0.163-1.311-0.489-1.864-0.314-0.552-0.74-0.991-1.28-1.318s-1.136-0.489-1.788-0.489h-4.329v7.322z"></path>
<path  d="M123.365 22.908v-11.859h4.593v10.654c0 0.74 0.182 1.418 0.546 2.033 0.364 0.602 0.847 1.086 1.449 1.449 0.615 0.351 1.286 0.527 2.014 0.527 0.753 0 1.431-0.176 2.033-0.527 0.602-0.364 1.086-0.847 1.449-1.449 0.364-0.615 0.546-1.293 0.546-2.033v-10.654h4.593l0.019 18.824h-4.593l-0.019-1.713c-0.653 0.678-1.424 1.217-2.315 1.619-0.891 0.389-1.845 0.584-2.861 0.584-1.368 0-2.616-0.333-3.746-0.998-1.129-0.678-2.033-1.575-2.711-2.692-0.665-1.129-0.998-2.384-0.998-3.765z"></path>
<path  d="M144.485 29.873v-28.235h4.593v28.235h-4.593z"></path>
<path  d="M159.156 30.212c-0.979-0.063-1.926-0.257-2.842-0.584-0.904-0.339-1.707-0.797-2.409-1.374s-1.242-1.267-1.619-2.071l3.878-1.656c0.151 0.251 0.395 0.521 0.734 0.809 0.339 0.276 0.74 0.508 1.205 0.696 0.477 0.188 0.998 0.282 1.562 0.282 0.477 0 0.929-0.063 1.355-0.188 0.439-0.138 0.791-0.345 1.054-0.621 0.276-0.276 0.414-0.634 0.414-1.073 0-0.464-0.163-0.822-0.489-1.073-0.314-0.264-0.715-0.458-1.205-0.584-0.477-0.138-0.941-0.264-1.393-0.376-1.192-0.238-2.303-0.609-3.332-1.111-1.016-0.502-1.839-1.148-2.466-1.939-0.615-0.803-0.922-1.769-0.922-2.899 0-1.242 0.326-2.315 0.979-3.219 0.665-0.904 1.525-1.6 2.579-2.089 1.067-0.489 2.215-0.734 3.445-0.734 1.493 0 2.861 0.314 4.104 0.941 1.255 0.615 2.246 1.487 2.974 2.616l-3.633 2.146c-0.176-0.301-0.421-0.577-0.734-0.828-0.314-0.264-0.671-0.477-1.073-0.64-0.402-0.176-0.822-0.276-1.261-0.301-0.565-0.025-1.079 0.025-1.544 0.151s-0.841 0.339-1.129 0.64c-0.276 0.301-0.414 0.703-0.414 1.205 0 0.477 0.188 0.834 0.565 1.073 0.376 0.226 0.828 0.402 1.355 0.527 0.539 0.125 1.054 0.264 1.544 0.414 1.104 0.364 2.139 0.809 3.106 1.336 0.979 0.527 1.763 1.173 2.353 1.939s0.872 1.681 0.847 2.748c0 1.217-0.364 2.284-1.092 3.2-0.728 0.904-1.669 1.594-2.824 2.071-1.142 0.477-2.366 0.665-3.671 0.565z"></path>
<path  d="M177.951 30.362c-1.732 0-3.313-0.446-4.744-1.336-1.418-0.891-2.554-2.089-3.407-3.595-0.841-1.506-1.261-3.169-1.261-4.988 0-1.368 0.245-2.648 0.734-3.84 0.489-1.205 1.161-2.259 2.014-3.162 0.866-0.916 1.87-1.631 3.012-2.146s2.359-0.772 3.652-0.772c1.468 0 2.811 0.314 4.028 0.941 1.23 0.615 2.271 1.462 3.125 2.541s1.475 2.309 1.864 3.689c0.389 1.38 0.477 2.824 0.264 4.329h-13.76c0.176 0.703 0.464 1.336 0.866 1.901 0.402 0.552 0.91 0.998 1.525 1.336 0.615 0.326 1.311 0.496 2.089 0.508 0.803 0.013 1.531-0.176 2.184-0.565 0.665-0.401 1.217-0.941 1.656-1.619l4.687 1.092c-0.766 1.669-1.907 3.037-3.426 4.104-1.518 1.054-3.219 1.581-5.101 1.581zM173.321 18.579h9.261c-0.138-0.753-0.433-1.431-0.885-2.033-0.439-0.615-0.985-1.104-1.638-1.468s-1.355-0.546-2.108-0.546-1.449 0.182-2.089 0.546c-0.64 0.351-1.186 0.835-1.638 1.449-0.439 0.602-0.74 1.286-0.904 2.052z"></path></symbol>

<symbol id="icon-calendarOMG" viewBox="0 0 32 32">
<path  stroke-linejoin="round" stroke-linecap="round" stroke-miterlimit="4" stroke-width="2.4" d="M25.333 5.333h-18.667c-1.473 0-2.667 1.194-2.667 2.667v0 18.667c0 1.467 1.2 2.667 2.667 2.667h18.667c1.473 0 2.667-1.194 2.667-2.667v0-18.667c0-1.473-1.194-2.667-2.667-2.667v0zM21.333 2.667v5.333M10.667 2.667v5.333M4 13.333h24"></path>
</symbol>
<symbol id="icon-chevron-leftOMG" viewBox="0 0 32 32">
<path  d="M21.080 1.080l2.84 2.84-11.6 11.58 11.6 11.6-2.84 2.8-14.4-14.4 14.4-14.4z"></path>
</symbol>
<symbol id="icon-chevron-rightOMG" viewBox="0 0 32 32">
<path  d="M10.92 29.92l-2.84-2.84 11.6-11.58-11.6-11.6 2.84-2.78 14.4 14.4-14.4 14.4z"></path>
</symbol>

<symbol id="icon-Attention1" viewBox="0 0 32 32">
<path fill="#efa082" style="fill: var(--color1, #efa082)" d="M32 16c0 8.837-7.163 16-16 16s-16-7.163-16-16c0-8.837 7.163-16 16-16s16 7.163 16 16z"></path>
<path fill="#efede8" style="fill: var(--color2, #efede8)" d="M16 5.333c-0.736 0-1.333 0.597-1.333 1.333v0 13.333c0 0.736 0.597 1.333 1.333 1.333v0c0.736 0 1.333-0.597 1.333-1.333v0-13.333c0-0.736-0.597-1.333-1.333-1.333v0zM16 24c-0.736 0-1.333 0.597-1.333 1.333v0 0.013c0 0.736 0.597 1.333 1.333 1.333v0c0.736 0 1.333-0.597 1.333-1.333v0-0.013c0-0.736-0.597-1.333-1.333-1.333v0z"></path>
</symbol>

<symbol id="icon-fluent_food-24-filled_OMG" viewBox="0 0 32 32">
<path fill="#ef8964" style="fill: var(--color1, #ef8964)" d="M24 4c0.679 0.004 1.237 0.518 1.311 1.178l0.001 0.006 0.016 0.16v21.328c0.002 0.024 0.002 0.052 0.002 0.080 0 0.735-0.596 1.33-1.33 1.33-0.707 0-1.285-0.551-1.328-1.247l-0-0.004v-6.832h-1.344c-0.002 0-0.005 0-0.008 0-0.683 0-1.245-0.515-1.32-1.178l-0.001-0.006v-8.16c0-2.928 2-6.656 4-6.656zM16 4c0.679 0.004 1.237 0.518 1.311 1.178l0.001 0.006 0.016 0.16v6.656c-0.002 2.472-1.682 4.551-3.963 5.16l-0.037 0.008v9.504c0.002 0.024 0.002 0.052 0.002 0.080 0 0.735-0.596 1.33-1.33 1.33-0.707 0-1.285-0.551-1.328-1.247l-0-0.004v-9.664c-2.235-0.586-3.878-2.534-3.999-4.883l-0.001-0.013v-6.944c0.023-0.715 0.608-1.287 1.327-1.287 0.662 0 1.211 0.485 1.312 1.119l0.001 0.008 0.016 0.16v6.672c0.002 0.978 0.53 1.833 1.316 2.297l0.012 0.007v-8.96c-0.002-0.024-0.002-0.052-0.002-0.080 0-0.735 0.596-1.33 1.33-1.33 0.707 0 1.285 0.551 1.328 1.247l0 0.004 0.016 0.16v8.96c0.739-0.431 1.247-1.189 1.327-2.070l0.001-0.010v-6.896c0-0 0-0 0-0 0-0.733 0.595-1.328 1.328-1.328 0.006 0 0.011 0 0.017 0h-0.001z"></path>
</symbol>

<symbol id="icon-logo-lg" viewBox="0 0 83 32">
<path  d="M80.941 13.714c1.040 0 1.882 0.843 1.882 1.882v0.807c0 1.040-0.843 1.882-1.882 1.882h-2.151c-1.039 0-1.882 0.843-1.882 1.882v5.378c0 1.040-0.843 1.882-1.882 1.882h-2.151c-1.040 0-1.882 0.843-1.882 1.882v0.807c0 1.040-0.843 1.882-1.882 1.882h-5.109c-1.040 0-1.882-0.843-1.882-1.882v-9.95c0-1.040-0.843-1.882-1.882-1.882h-37.647c-1.040 0-1.882 0.843-1.882 1.882v9.95c0 1.040-0.843 1.882-1.882 1.882h-5.109c-1.040 0-1.882-0.843-1.882-1.882v-0.807c0-1.040-0.843-1.882-1.882-1.882h-2.151c-1.040 0-1.882-0.843-1.882-1.882v-5.378c0-1.040-0.843-1.882-1.882-1.882h-2.151c-1.040 0-1.882-0.843-1.882-1.882v-0.807c0-1.040 0.843-1.882 1.882-1.882h2.151c1.040 0 1.882-0.843 1.882-1.882v-5.378c0-1.040 0.843-1.882 1.882-1.882h2.151c1.040 0 1.882-0.843 1.882-1.882v-0.807c0-1.040 0.843-1.882 1.882-1.882h5.109c1.040 0 1.882 0.843 1.882 1.882v9.95c0 1.040 0.843 1.882 1.882 1.882h37.647c1.040 0 1.882-0.843 1.882-1.882v-9.95c0-1.040 0.843-1.882 1.882-1.882h5.109c1.040 0 1.882 0.843 1.882 1.882v0.807c0 1.040 0.843 1.882 1.882 1.882h2.151c1.040 0 1.882 0.843 1.882 1.882v5.378c0 1.040 0.843 1.882 1.882 1.882h2.151z"></path>
</symbol>
<symbol id="icon-logo-sm" viewBox="0 0 89 32">
<path  d="M86.33 13.714c1.263 0 2.286 1.023 2.286 2.286s-1.023 2.286-2.286 2.286h-1.582c-1.359 0-2.462 1.102-2.462 2.462v4.22c0 1.359-1.102 2.462-2.462 2.462h-1.583c-1.262 0-2.286 1.023-2.286 2.286s-1.023 2.286-2.286 2.286h-4.747c-1.359 0-2.462-1.102-2.462-2.462v-8.791c0-1.359-1.102-2.462-2.462-2.462h-39.385c-1.359 0-2.462 1.102-2.462 2.462v8.791c0 1.36-1.102 2.462-2.462 2.462h-4.747c-1.262 0-2.286-1.023-2.286-2.286s-1.023-2.286-2.286-2.286h-1.582c-1.359 0-2.462-1.102-2.462-2.462v-4.22c0-1.359-1.102-2.462-2.462-2.462h-1.582c-1.262 0-2.286-1.023-2.286-2.286s1.023-2.286 2.286-2.286h1.582c1.359 0 2.462-1.102 2.462-2.462v-4.22c0-1.359 1.102-2.462 2.462-2.462h1.582c1.262 0 2.286-1.023 2.286-2.286s1.023-2.286 2.286-2.286h4.747c1.359 0 2.462 1.102 2.462 2.462v8.791c0 1.359 1.102 2.462 2.462 2.462h39.385c1.359 0 2.462-1.102 2.462-2.462v-8.791c0-1.359 1.102-2.462 2.462-2.462h4.747c1.262 0 2.286 1.023 2.286 2.286s1.023 2.286 2.286 2.286h1.583c1.359 0 2.462 1.102 2.462 2.462v4.22c0 1.359 1.102 2.462 2.462 2.462h1.582z"></path>
</symbol>
<symbol id="icon-arrow" viewBox="0 0 32 32">
<path stroke-linejoin="round" stroke-linecap="round" stroke-miterlimit="4" stroke-width="2.6" d="M15 28l13-13M28 15l-13-13M28 15h-26"></path>
</symbol>

<symbol id="icon-Line" viewBox="0 0 87 32">
<path fill="none" stroke="#ef8964" style="stroke: var(--color1, #ef8964)" stroke-linejoin="round" stroke-linecap="round" stroke-miterlimit="4" stroke-width="1.7297" d="M60.717 0.865c-20.169 0.292-64.211 3.812-59.502 21.728 4.232 12.649 64.534 9.932 79.413 0.414s-5.555-19.422-34.037-15.916"></path>

</symbol>

<symbol id="icon-calories-1_OMG" viewBox="0 0 32 32">
<path fill="#ef8964" style="fill: var(--color1, #ef8964)" d="M16 22.288c-0.96 0.72-2.896 2.496-2.896 4.928 0 1.599 1.297 2.896 2.896 2.896s2.896-1.297 2.896-2.896v0c0-2.304-1.952-4.16-2.896-4.928z"></path>
<path fill="#ef8964" style="fill: var(--color1, #ef8964)" d="M22.784 5.568c-0.173-0.189-0.421-0.307-0.696-0.307-0.243 0-0.465 0.092-0.633 0.243l0.001-0.001-4.416 4.112v-8.624c0-0.72-0.88-1.248-1.52-0.864-0.128 0.080-3.056 1.872-6.016 5.12-3.6 3.952-6.064 8.768-6.064 14.16 0 0 0 0 0 0 0 6.943 5.619 12.574 12.558 12.592h0.002c-2.635-0.009-4.768-2.147-4.768-4.784 0 0 0-0 0-0v0c0-4.256 4.128-6.784 4.32-6.88 0.141-0.090 0.312-0.144 0.496-0.144s0.355 0.054 0.5 0.146l-0.004-0.002c0.16 0.128 4.224 2.848 4.224 6.88 0 0 0 0 0 0 0 2.636-2.133 4.775-4.767 4.784h-0.001c6.941-0.018 12.56-5.649 12.56-12.592 0 0 0-0 0-0v0c0-5.232-2.32-9.92-5.76-13.84z"></path>
</symbol>
<symbol id="icon-bubble_OMG" viewBox="0 0 32 32">
<path fill="#ef8964" style="fill: var(--color1, #ef8964)" d="M20.8 16.352c0.099 0.005 0.215 0.008 0.331 0.008 3.782 0 6.848-3.066 6.848-6.848s-3.066-6.848-6.848-6.848c-0.116 0-0.232 0.003-0.347 0.009l0.016-0.001c-3.637 0.181-6.517 3.174-6.517 6.84s2.88 6.659 6.501 6.839l0.016 0.001zM8.48 25.92c0.077 0.005 0.166 0.008 0.256 0.008 2.271 0 4.112-1.841 4.112-4.112s-1.841-4.112-4.112-4.112c-0.090 0-0.18 0.003-0.268 0.009l0.012-0.001c-2.158 0.139-3.856 1.923-3.856 4.104s1.698 3.965 3.844 4.103l0.012 0.001zM22.144 29.328c1.882 0 3.408-1.526 3.408-3.408s-1.526-3.408-3.408-3.408v0c-1.882 0-3.408 1.526-3.408 3.408s1.526 3.408 3.408 3.408v0z"></path>
</symbol>
<symbol id="icon-running-stick-figure-svgrepo-com_OMG" viewBox="0 0 32 32">
<path fill="#ef8964" style="fill: var(--color1, #ef8964)" d="M29.648 9.44c-0.219-0.262-0.546-0.428-0.911-0.428-0.294 0-0.564 0.107-0.771 0.285l-3.278 2.767-1.504-3.744c-0.055-0.142-0.13-0.264-0.225-0.369l0.001 0.001c-0.327-0.713-0.887-1.273-1.58-1.592l-0.020-0.008c-0.32-0.16-0.64-0.24-0.96-0.272l-0.224-0.112-5.776-1.6c-0.1-0.030-0.215-0.048-0.334-0.048-0.219 0-0.424 0.059-0.6 0.163l0.006-0.003c-0.331 0.108-0.59 0.352-0.717 0.664l-0.003 0.008-2.176 5.6c-0.049 0.126-0.078 0.272-0.078 0.424 0 0.657 0.533 1.19 1.19 1.19 0.505 0 0.936-0.314 1.109-0.758l0.003-0.008 1.84-4.736 2.64 0.736c-0.064 0.096-0.144 0.192-0.192 0.304l-3.36 7.312c-0.064 0.112-0.080 0.208-0.128 0.32l-4.096 6.88-6.848 2.288c-0.353 0.323-0.573 0.785-0.573 1.299 0 0.972 0.788 1.76 1.76 1.76 0.329 0 0.637-0.090 0.901-0.248l-0.008 0.004 7.008-2.4c0.224-0.16 0.384-0.368 0.48-0.592 0.096-0.096 0.208-0.16 0.272-0.288l2.448-4.096 4.32 3.696-4.64 5.232c-0.312 0.317-0.505 0.753-0.505 1.234 0 0.972 0.788 1.76 1.76 1.76 0.56 0 1.060-0.262 1.382-0.67l0.003-0.004 5.776-6.528c0.192-0.192 0.288-0.432 0.368-0.672 0.048-0.128 0.048-0.272 0.048-0.4l0.032-0.208c-0.016-0.48-0.208-0.928-0.608-1.28l-4-3.392c0.294-0.272 0.536-0.595 0.712-0.957l0.008-0.019 2.592-5.6 0.816 2.208c0.032 0.209 0.117 0.394 0.242 0.546l-0.002-0.002c0.128 0.16 0.288 0.256 0.464 0.32h0.048c0.112 0.048 0.224 0.096 0.32 0.096 0.024 0.002 0.053 0.003 0.082 0.003 0.119 0 0.234-0.019 0.342-0.053l-0.008 0.002 0.112-0.016c0.192-0.073 0.353-0.188 0.479-0.334l0.001-0.002 4.704-4c0.496-0.416 0.288-1.168-0.128-1.664zM23.68 6.608c1.825 0 3.304-1.479 3.304-3.304s-1.479-3.304-3.304-3.304v0c-1.825 0-3.304 1.479-3.304 3.304s1.479 3.304 3.304 3.304v0z"></path>
</symbol>
<symbol id="icon-trash-03_OMG" viewBox="0 0 32 32">
<path  d="M12 2.8c-0.663 0-1.2 0.537-1.2 1.2v0c0 0.663 0.537 1.2 1.2 1.2v0h8c0.663 0 1.2-0.537 1.2-1.2v0c0-0.663-0.537-1.2-1.2-1.2v0zM4 6.8c-0.663 0-1.2 0.537-1.2 1.2v0c0 0.663 0.537 1.2 1.2 1.2v0h1.55l0.853 12.912c0 0 0 0.001 0 0.002s0 0.001 0 0.002v-0c0.143 2.088 0.162 3.31 0.828 4.463 0.001 0.001 0.002 0.002 0.003 0.003 0.52 0.909 1.299 1.64 2.241 2.097-0.005-0.002-0.002-0.001-0 0l0.007 0.003c1.184 0.569 2.391 0.519 4.519 0.519h4c2.128 0 3.335 0.050 4.519-0.519 0.954-0.456 1.731-1.192 2.247-2.097 0.669-1.154 0.688-2.377 0.831-4.469 0-0 0-0.001 0-0.002s0-0.001 0-0.002v0l0.853-12.912h1.55c0.663 0 1.2-0.537 1.2-1.2v0c0-0.663-0.537-1.2-1.2-1.2v0zM7.953 9.2h16.094l-0.844 12.75c-0.144 2.099-0.254 2.986-0.512 3.431 0.001-0.001-0.001 0.002-0.003 0.005l-0.003 0.004c-0.284 0.499-0.688 0.882-1.203 1.128-0.48 0.231-1.353 0.281-3.481 0.281h-4c-2.126 0-2.998-0.051-3.478-0.281h-0.003c-0.505-0.247-0.924-0.64-1.203-1.128-0.005-0.008-0.007-0.011-0.009-0.014l0.003 0.004c-0.258-0.445-0.368-1.333-0.512-3.428v-0.003zM13.328 12.8c-0.663 0-1.2 0.537-1.2 1.2v0 6.672c0 0.663 0.537 1.2 1.2 1.2v0c0.663 0 1.2-0.537 1.2-1.2v0-6.672c0-0.663-0.537-1.2-1.2-1.2v0zM18.672 12.8c-0.663 0-1.2 0.537-1.2 1.2v0 6.672c0 0.663 0.537 1.2 1.2 1.2v0c0.663 0 1.2-0.537 1.2-1.2v0-6.672c0-0.663-0.537-1.2-1.2-1.2v0z"></path>
</symbol>
<symbol id="icon-arrow_OMG" viewBox="0 0 32 32">
<path d="M15 0.699c-0.359 0.001-0.683 0.147-0.918 0.383l-0 0c-0.235 0.235-0.38 0.56-0.38 0.918s0.145 0.683 0.38 0.918l10.781 10.781h-22.863c-0 0-0 0-0.001 0-0.718 0-1.3 0.582-1.3 1.3 0 0 0 0.001 0 0.001v-0c0 0 0 0.001 0 0.001 0 0.718 0.582 1.3 1.3 1.3 0 0 0.001 0 0.001 0h22.863l-10.781 10.781c-0.235 0.235-0.38 0.56-0.38 0.918s0.145 0.683 0.38 0.918l-0-0c0.235 0.235 0.56 0.38 0.918 0.38s0.683-0.145 0.918-0.38l13-13c0.236-0.235 0.382-0.559 0.383-0.918v-0c-0.001-0.179-0.038-0.35-0.105-0.505l0.003 0.008c-0.069-0.164-0.164-0.304-0.281-0.422l-13-13c-0.235-0.236-0.559-0.382-0.918-0.383h-0z"></path>
</symbol>

    </defs>
</svg>

