<svg aria-hidden="true" style="position: absolute; width: 0; height: 0; overflow: hidden;"
    version="1.1" xmlns="http://www.w3.org/2000/svg" xmlns:xlink="http://www.w3.org/1999/xlink">
    <defs>
        <symbol id="icon-logo" viewBox="0 0 83 32">
            <path
                d="M80.941 13.715c1.040 0 1.882 0.843 1.882 1.882v0 0.806c0 1.040-0.843 1.882-1.882 1.882v0h-2.152c-1.040 0-1.882 0.843-1.882 1.882v0 5.378c0 1.040-0.843 1.882-1.882 1.882v0h-2.152c-1.040 0-1.882 0.843-1.882 1.882v0 0.808c0 1.040-0.843 1.882-1.882 1.882v0h-5.109c-1.040 0-1.882-0.843-1.882-1.882v0-9.95c0-1.040-0.843-1.882-1.882-1.882v0h-37.647c-1.040 0-1.882 0.843-1.882 1.882v0 9.95c0 1.040-0.843 1.882-1.882 1.882v0h-5.109c-1.040 0-1.882-0.843-1.882-1.882v0-0.808c0-1.040-0.843-1.882-1.882-1.882v0h-2.152c-1.040 0-1.882-0.843-1.882-1.882v0-5.378c0-1.040-0.843-1.882-1.882-1.882v0h-2.152c-1.040 0-1.882-0.843-1.882-1.882v0-0.806c0-1.040 0.843-1.882 1.882-1.882v0h2.152c1.040 0 1.882-0.843 1.882-1.882v0-5.378c0-1.040 0.843-1.882 1.882-1.882v0h2.152c1.040 0 1.882-0.843 1.882-1.882v0-0.808c0-1.040 0.843-1.882 1.882-1.882v0h5.109c1.040 0 1.882 0.843 1.882 1.882v0 9.95c0 1.040 0.843 1.882 1.882 1.882v0h37.647c1.040 0 1.882-0.843 1.882-1.882v0-9.95c0-1.040 0.843-1.882 1.882-1.882v0h5.109c1.040 0 1.882 0.843 1.882 1.882v0 0.808c0 1.040 0.843 1.882 1.882 1.882v0h2.152c1.040 0 1.882 0.843 1.882 1.882v0 5.378c0 1.040 0.843 1.882 1.882 1.882v0h2.152z"></path>
        </symbol>
        <symbol id="icon-bubble" viewBox="0 0 32 32">
            <path
                d="M20.794 16.346c3.778 0 6.84-3.062 6.84-6.84s-3.062-6.84-6.84-6.84v0c-3.778 0-6.84 3.062-6.84 6.84s3.062 6.84 6.84 6.84v0zM8.475 25.92c2.268 0 4.107-1.839 4.107-4.107s-1.839-4.107-4.107-4.107v0c-2.233 0.045-4.026 1.867-4.026 4.106s1.793 4.061 4.022 4.106l0.004 0zM22.15 29.333c1.885 0 3.414-1.528 3.414-3.414s-1.528-3.414-3.414-3.414v0c-1.885 0-3.414 1.528-3.414 3.414s1.528 3.414 3.414 3.414v0z"></path>
        </symbol>
        <symbol id="icon-delete" viewBox="0 0 32 32">
            <path stroke-linejoin="round" stroke-linecap="round" stroke-miterlimit="4"
                stroke-width="2.4"
                d="M12 4h8M13.333 14v6.667M18.667 14v6.667M4 8h24M25.333 8l-0.934 14.026c-0.141 2.104-0.211 3.157-0.666 3.955-0.405 0.703-0.997 1.258-1.708 1.609l-0.023 0.010c-0.826 0.4-1.88 0.4-3.989 0.4h-4.026c-2.109 0-3.163 0-3.989-0.4-0.734-0.361-1.326-0.917-1.721-1.6l-0.010-0.019c-0.454-0.8-0.525-1.851-0.666-3.955l-0.934-14.026"></path>
        </symbol>
        <symbol id="icon-avatar" viewBox="0 0 32 32">
            <path
                d="M16 1.067c4.124 0 7.467 3.343 7.467 7.467s-3.343 7.467-7.467 7.467v0c-4.124 0-7.467-3.343-7.467-7.467s3.343-7.467 7.467-7.467v0zM16 30.933s14.933 0 14.933-3.733c0-4.48-7.279-9.333-14.933-9.333-7.652 0-14.933 4.853-14.933 9.333 0 3.733 14.933 3.733 14.933 3.733z"></path>
        </symbol>
        <symbol id="icon-burger" viewBox="0 0 32 32">
            <path stroke-linejoin="round" stroke-linecap="round" stroke-miterlimit="4"
                stroke-width="3.2" d="M1.6 16h19.2M1.6 6.4h28.8M1.6 25.6h28.8"></path>
        </symbol>
        <symbol id="icon-cross" viewBox="0 0 32 32">
            <path stroke-linejoin="round" stroke-linecap="round" stroke-miterlimit="4"
                stroke-width="2.4615" d="M24 8l-16 16M8 8l16 16"></path>
        </symbol>
        <symbol id="icon-add" viewBox="0 0 32 32">
            <path stroke-linejoin="round" stroke-linecap="round" stroke-miterlimit="4"
                stroke-width="2.7733"
                d="M16 29.867l13.867-13.867M29.867 16l-13.867-13.867M29.867 16h-27.733"></path>
        </symbol>
        <symbol id="icon-add-avatar" viewBox="0 0 32 32">
            <path
                d="M11.231 0.57l4.024 1.164c0.452 0.131 0.932 0.132 1.384 0.003l4.175-1.189c1.127-0.321 2.326 0.181 2.889 1.208l2.18 3.982c0.224 0.409 0.558 0.748 0.964 0.978l3.39 1.92c1.028 0.582 1.511 1.803 1.159 2.931l-1.172 3.759c-0.151 0.484-0.152 1.002-0.002 1.487l1.191 3.86c0.344 1.114-0.125 2.318-1.132 2.906l-3.859 2.256c-0.404 0.236-0.734 0.581-0.953 0.995l-1.797 3.404c-0.545 1.033-1.731 1.553-2.86 1.255l-4.22-1.114c-0.423-0.112-0.868-0.111-1.291 0.002l-4.057 1.088c-1.155 0.31-2.369-0.239-2.899-1.311l-1.788-3.612c-0.236-0.476-0.617-0.866-1.088-1.112l-3.674-1.918c-1.048-0.547-1.572-1.752-1.258-2.893l1.075-3.896c0.118-0.429 0.121-0.882 0.006-1.313l-1.118-4.206c-0.295-1.111 0.201-2.28 1.206-2.838l3.831-2.131c0.429-0.239 0.778-0.598 1.005-1.033l1.765-3.385c0.552-1.059 1.775-1.582 2.922-1.25z"></path>
        </symbol>
        <symbol id="icon-exclamation-mark" viewBox="0 0 32 32">
            <path stroke-linejoin="round" stroke-linecap="round" stroke-miterlimit="4"
                stroke-width="4" d="M16 30v0.020M16 22v-20"></path>
        </symbol>
        <symbol id="icon-log-out" viewBox="0 0 32 32">
            <path fill-opacity="0" stroke-linejoin="round" stroke-linecap="round"
                stroke-miterlimit="4" stroke-width="2.4"
                d="M12 4h-1.6c-2.24 0-3.36 0-4.216 0.435-0.756 0.391-1.358 0.992-1.738 1.727l-0.011 0.022c-0.435 0.856-0.435 1.976-0.435 4.216v11.2c0 2.24 0 3.36 0.435 4.216 0.391 0.756 0.992 1.357 1.726 1.737l0.022 0.011c0.856 0.437 1.976 0.437 4.216 0.437h1.6M21.333 22.667l6.667-6.667M28 16l-6.667-6.667M28 16h-16"></path>
        </symbol>
        <symbol id="icon-gear" viewBox="0 0 32 32">
            <path stroke-linejoin="round" stroke-linecap="round" stroke-miterlimit="4"
                stroke-width="2.4615"
                d="M25.66 19.916c-0.116 0.256-0.183 0.555-0.183 0.869 0 0.586 0.234 1.118 0.614 1.507l-0-0 0.078 0.079c0.473 0.472 0.766 1.125 0.766 1.847s-0.293 1.374-0.766 1.847l-0 0c-0.473 0.473-1.125 0.765-1.847 0.765s-1.374-0.293-1.847-0.765l-0-0-0.079-0.078c-0.388-0.38-0.919-0.614-1.506-0.614-0.315 0-0.614 0.068-0.883 0.189l0.014-0.005c-0.771 0.337-1.301 1.091-1.305 1.97v0.222c0 1.442-1.169 2.611-2.611 2.611s-2.611-1.169-2.611-2.611v0-0.117c-0.022-0.902-0.596-1.665-1.396-1.966l-0.015-0.005c-0.256-0.116-0.555-0.183-0.869-0.183-0.586 0-1.118 0.234-1.506 0.614l0-0-0.079 0.078c-0.473 0.473-1.126 0.765-1.847 0.765-1.442 0-2.612-1.169-2.612-2.612 0-0.721 0.292-1.374 0.765-1.847l0.079-0.079c0.38-0.388 0.614-0.92 0.614-1.506 0-0.315-0.067-0.614-0.189-0.883l0.005 0.014c-0.337-0.771-1.092-1.301-1.971-1.305h-0.222c-1.442 0-2.611-1.169-2.611-2.611s1.169-2.611 2.611-2.611v0h0.117c0.903-0.022 1.666-0.595 1.967-1.396l0.005-0.015c0.116-0.256 0.183-0.555 0.183-0.869 0-0.586-0.234-1.118-0.614-1.506l-0.078-0.078c-0.473-0.473-0.765-1.126-0.765-1.847 0-1.443 1.17-2.612 2.612-2.612 0.721 0 1.375 0.292 1.847 0.765l0.078 0.078c0.388 0.38 0.92 0.614 1.506 0.614 0.315 0 0.614-0.067 0.883-0.189l-0.014 0.005h0.105c0.772-0.337 1.302-1.091 1.306-1.97v-0.222c0-1.442 1.169-2.61 2.61-2.61s2.61 1.169 2.61 2.61v0 0.117c0.003 0.88 0.534 1.635 1.292 1.966l0.014 0.005c0.256 0.116 0.555 0.183 0.869 0.183 0.586 0 1.118-0.234 1.506-0.614l0.078-0.078c0.473-0.473 1.126-0.765 1.847-0.765 1.442 0 2.612 1.169 2.612 2.612 0 0.721-0.292 1.374-0.765 1.847v0l-0.078 0.079c-0.38 0.388-0.614 0.92-0.614 1.506 0 0.315 0.067 0.614 0.189 0.883l-0.005-0.014v0.105c0.337 0.771 1.091 1.301 1.97 1.305h0.222c1.442 0 2.611 1.169 2.611 2.611s-1.169 2.611-2.611 2.611v0h-0.117c-0.879 0.003-1.634 0.533-1.965 1.291l-0.005 0.014z"></path>
        </symbol>
        <symbol id="icon-flame" viewBox="0 0 32 32">
            <path
                d="M16 22.291c-0.944 0.72-2.896 2.501-2.896 4.925 0 1.602 1.299 2.904 2.896 2.904s2.896-1.302 2.896-2.904c0-2.296-1.952-4.16-2.896-4.925z"></path>
            <path
                d="M22.789 5.57c-0.172-0.194-0.422-0.316-0.701-0.316-0.247 0-0.472 0.096-0.639 0.252l0.001-0-4.411 4.117v-8.624c0-0.72-0.87-1.259-1.523-0.864-0.123 0.074-3.056 1.864-6.016 5.115-3.605 3.95-6.058 8.765-6.058 14.163 0.002 6.941 5.634 12.587 12.558 12.587-2.637-0.007-4.771-2.146-4.771-4.784 0 0 0 0 0-0v0c0-4.261 4.138-6.784 4.314-6.891 0.137-0.083 0.303-0.132 0.48-0.132 0.192 0 0.37 0.058 0.519 0.157l-0.003-0.002c0.173 0.114 4.234 2.838 4.234 6.869 0 0 0 0 0 0 0 2.638-2.135 4.777-4.771 4.784h-0.001c6.923 0 12.557-5.648 12.557-12.587 0-5.242-2.314-9.938-5.768-13.843z"></path>
        </symbol>
        <symbol id="icon-human" viewBox="0 0 32 32">
            <path
                d="M29.648 9.451c-0.219-0.26-0.545-0.424-0.909-0.424-0.29 0-0.556 0.104-0.762 0.277l0.002-0.002-3.28 2.757-1.51-3.739c-0.056-0.14-0.134-0.261-0.229-0.364l0.001 0.001c-0.321-0.716-0.875-1.281-1.563-1.608l-0.019-0.008c-0.32-0.146-0.651-0.224-0.982-0.262-0.072-0.038-0.139-0.088-0.222-0.114l-5.776-1.61c-0.093-0.026-0.199-0.041-0.31-0.041-0.223 0-0.432 0.062-0.611 0.169l0.005-0.003c-0.33 0.108-0.59 0.352-0.717 0.664l-0.003 0.008-2.174 5.592c-0.050 0.127-0.079 0.273-0.079 0.427 0 0.501 0.31 0.929 0.748 1.103l0.008 0.003c0.126 0.050 0.272 0.079 0.425 0.079 0.5 0 0.928-0.31 1.103-0.748l0.003-0.008 1.837-4.723 2.63 0.731c-0.064 0.104-0.133 0.202-0.186 0.312l-3.371 7.312c-0.048 0.107-0.075 0.216-0.11 0.326l-4.098 6.87-6.859 2.294c-0.42 0.323-0.687 0.826-0.687 1.391 0 0.968 0.784 1.752 1.752 1.752 0.381 0 0.733-0.122 1.021-0.328l-0.005 0.004 7.019-2.416c0.216-0.157 0.371-0.362 0.49-0.581 0.088-0.094 0.189-0.168 0.256-0.285l2.443-4.096 4.336 3.696-4.64 5.229c-0.273 0.307-0.439 0.714-0.439 1.16 0 0.967 0.784 1.751 1.751 1.751 0.521 0 0.99-0.228 1.31-0.589l0.002-0.002 5.79-6.523c0.179-0.202 0.288-0.432 0.36-0.675 0.043-0.133 0.043-0.269 0.053-0.406 0-0.069 0.027-0.131 0.021-0.195-0.009-0.509-0.239-0.963-0.598-1.272l-0.002-0.002-3.992-3.403c0.288-0.274 0.533-0.6 0.709-0.982l2.586-5.6 0.829 2.208c0.031 0.211 0.116 0.398 0.242 0.551l-0.002-0.002c0.121 0.138 0.273 0.247 0.445 0.314l0.008 0.003c0.018 0.008 0.038 0.010 0.059 0.016 0.096 0.040 0.208 0.069 0.325 0.080l0.005 0c0.024 0.002 0.052 0.003 0.081 0.003 0.116 0 0.227-0.017 0.332-0.050l-0.008 0.002h0.005c0.037-0.010 0.074-0.003 0.11-0.019 0.186-0.076 0.343-0.192 0.464-0.337l0.002-0.002 4.71-3.997c0.501-0.422 0.288-1.168-0.133-1.667zM23.69 6.602c1.823 0 3.301-1.478 3.301-3.301s-1.478-3.301-3.301-3.301v0c-1.823 0-3.301 1.478-3.301 3.301s1.478 3.301 3.301 3.301v0z"></path>
        </symbol>
        <symbol id="icon-dumbbell" viewBox="0 0 32 32">
            <path
                d="M5.2 8h-2.4c-0.001 0-0.002 0-0.003 0-0.661 0-1.197 0.536-1.197 1.197 0 0.001 0 0.002 0 0.003v-0 5.2h-1.2c-0.221 0-0.4 0.179-0.4 0.4v0 2.4c0 0.221 0.181 0.4 0.4 0.4h1.2v5.2c0 0.666 0.534 1.2 1.2 1.2h2.4c0.666 0 1.2-0.534 1.2-1.2v-13.6c0-0.001 0-0.002 0-0.003 0-0.661-0.536-1.197-1.197-1.197-0.001 0-0.002 0-0.003 0h0zM31.6 14.4h-1.2v-5.2c0-0.001 0-0.002 0-0.003 0-0.661-0.536-1.197-1.197-1.197-0.001 0-0.002 0-0.003 0h-2.4c-0.001 0-0.002 0-0.003 0-0.661 0-1.197 0.536-1.197 1.197 0 0.001 0 0.002 0 0.003v-0 13.6c0 0.666 0.534 1.2 1.2 1.2h2.4c0.666 0 1.2-0.534 1.2-1.2v-5.2h1.2c0.221 0 0.4-0.179 0.4-0.4v0-2.4c0-0.221-0.179-0.4-0.4-0.4v0zM22.8 4.8h-2.4c-0.001 0-0.002 0-0.003 0-0.661 0-1.197 0.536-1.197 1.197 0 0.001 0 0.002 0 0.003v-0 8.4h-6.4v-8.4c0-0.001 0-0.002 0-0.003 0-0.661-0.536-1.197-1.197-1.197-0.001 0-0.002 0-0.003 0h-2.4c-0.001 0-0.002 0-0.003 0-0.661 0-1.197 0.536-1.197 1.197 0 0.001 0 0.002 0 0.003v-0 20c0 0.666 0.534 1.2 1.2 1.2h2.4c0.666 0 1.2-0.534 1.2-1.2v-8.4h6.4v8.4c0 0.666 0.534 1.2 1.2 1.2h2.4c0.666 0 1.2-0.534 1.2-1.2v-20c0-0.001 0-0.002 0-0.003 0-0.661-0.536-1.197-1.197-1.197-0.001 0-0.002 0-0.003 0h0z"></path>
        </symbol>
        <symbol id="icon-cutlery" viewBox="0 0 32 32">
            <path
                d="M26 1c0.852 0 1.555 0.639 1.655 1.464l0.001 0.008 0.010 0.194v26.668c-0.019 0.906-0.758 1.634-1.668 1.634-0.841 0-1.536-0.622-1.651-1.431l-0.001-0.009-0.012-0.194v-8.334h-1.668c-0.851-0-1.554-0.639-1.653-1.464l-0.001-0.008-0.012-0.194v-10c0-3.684 2.5-8.334 5-8.334zM16 1c0 0 0.001 0 0.001 0 0.852 0 1.554 0.639 1.654 1.464l0.001 0.008 0.010 0.194v8.334c-0.001 3.090-2.102 5.688-4.953 6.445l-0.047 0.011v11.878c-0.003 0.918-0.748 1.66-1.666 1.66-0.85 0-1.551-0.636-1.653-1.458l-0.001-0.008-0.012-0.194v-11.878c-2.788-0.737-4.836-3.165-4.993-6.095l-0.001-0.017-0.006-0.344v-8.334c0.003-0.918 0.748-1.66 1.666-1.66 0.85 0 1.551 0.636 1.653 1.458l0.001 0.008 0.012 0.194v8.334c0.001 1.227 0.664 2.299 1.652 2.877l0.016 0.009v-11.22c0.003-0.918 0.748-1.66 1.666-1.66 0.85 0 1.551 0.636 1.653 1.458l0.001 0.008 0.012 0.194 0.002 11.22c0.923-0.54 1.556-1.489 1.653-2.591l0.001-0.013 0.012-0.282v-8.334c0-0.92 0.746-1.666 1.666-1.666v0z"></path>
        </symbol>
        <symbol id="icon-apple" viewBox="0 0 32 32">
            <path
                d="M20.318 1.948c0.414-0.128 0.71-0.508 0.71-0.957 0-0.552-0.448-1-1-1-0.123 0-0.242 0.022-0.351 0.063l0.007-0.002c-1.876 0.624-3.044 2.164-3.732 3.814-0.067 0.151-0.153 0.376-0.232 0.604l-0.022 0.074c-0.899-1.682-2.331-2.979-4.066-3.685l-0.054-0.019c-0.872-0.357-1.885-0.564-2.946-0.564-0.083 0-0.166 0.001-0.249 0.004l0.012-0c-1.16 0.032-2.086 0.96-2.118 2.118-0.002 0.069-0.003 0.15-0.003 0.231 0 2.207 0.896 4.204 2.343 5.649l0 0 0.062 0.060c-3.422 0.76-5.991 3.634-6.282 7.153l-0.002 0.029-0.012 0.148c-0.035 0.407-0.054 0.88-0.054 1.358 0 2.984 0.769 5.788 2.119 8.225l-0.044-0.087 0.72 1.316c0.020 0.034 0.040 0.068 0.064 0.1l2 2.804c0.986 1.368 2.576 2.248 4.37 2.248 1.483 0 2.825-0.601 3.798-1.572l-0 0c0.165-0.166 0.393-0.268 0.645-0.268s0.48 0.102 0.645 0.268l0 0c0.972 0.973 2.315 1.575 3.798 1.575 1.795 0 3.384-0.881 4.359-2.235l0.011-0.016 2-2.802c0.021-0.029 0.042-0.062 0.061-0.097l0.003-0.005 0.718-1.316c1.306-2.35 2.074-5.154 2.074-8.138 0-0.478-0.020-0.951-0.058-1.42l0.004 0.061-0.010-0.148c-0.339-4.135-3.778-7.362-7.971-7.362-0.466 0-0.923 0.040-1.367 0.116l0.048-0.007-3.314 0.552c0.020-1.362 0.26-2.894 0.798-4.186 0.56-1.35 1.392-2.31 2.516-2.686h0.002zM9.818 13.948c-0.628 0.203-1.134 0.636-1.428 1.197l-0.006 0.013c-0.37 0.696-0.624 1.844-0.39 3.718 0.003 0.030 0.005 0.065 0.005 0.101 0 0.552-0.448 1-1 1-0.5 0-0.915-0.367-0.988-0.847l-0.001-0.006c-0.266-2.128-0.020-3.73 0.61-4.908 0.64-1.2 1.614-1.848 2.566-2.166 0.094-0.032 0.203-0.051 0.316-0.051 0.552 0 1 0.448 1 1 0 0.439-0.283 0.813-0.677 0.947l-0.007 0.002z"></path>
        </symbol>
        <symbol id="icon-icon" viewBox="0 0 32 32">
            <path stroke-linejoin="round" stroke-linecap="round" stroke-miterlimit="4"
                stroke-width="4.16" d="M5.331 28.8v-25.6M26.666 28.8v-25.6"></path>
        </symbol>
        <symbol id="icon-date" viewBox="0 0 32 32">
            <path stroke-linejoin="round" stroke-linecap="round" stroke-miterlimit="4"
                stroke-width="2.6667"
                d="M25.333 5.333h-18.667c-1.473 0-2.667 1.194-2.667 2.667v0 18.667c0 1.473 1.194 2.667 2.667 2.667v0h18.667c1.473 0 2.667-1.194 2.667-2.667v0-18.667c0-1.473-1.194-2.667-2.667-2.667v0zM21.333 2.667v5.333M10.667 2.667v5.333M4 13.333h24"></path>
        </symbol>
        <symbol id="icon-search" viewBox="0 0 32 32">
            <path
                d="M28.948 27.054l-4.948-4.907c1.644-2.036 2.639-4.656 2.639-7.508 0-6.627-5.373-12-12-12s-12 5.373-12 12c0 6.627 5.373 12 12 12 2.852 0 5.472-0.995 7.531-2.657l-0.023 0.018 4.907 4.907c0.242 0.244 0.577 0.394 0.947 0.394s0.705-0.151 0.947-0.394l0-0c0.232-0.24 0.374-0.566 0.374-0.926s-0.143-0.687-0.375-0.927l0 0zM14.667 24c-5.155 0-9.333-4.179-9.333-9.333s4.179-9.333 9.333-9.333v0c5.155 0 9.333 4.179 9.333 9.333s-4.179 9.333-9.333 9.333v0z"></path>
        </symbol>
        <symbol id="icon-logo-text" viewBox="0 0 188 32">
            <path fill="#efede8" style="fill: var(--color1, #efede8)"
                d="M0 29.873v-26.353h9.412c1.431 0 2.723 0.358 3.878 1.073 1.167 0.715 2.089 1.675 2.767 2.88s1.016 2.529 1.016 3.972c0 1.481-0.351 2.824-1.054 4.028-0.69 1.192-1.619 2.146-2.786 2.861-1.167 0.703-2.441 1.054-3.821 1.054h-4.819v10.485h-4.593zM4.593 14.795h4.329c0.653 0 1.249-0.163 1.788-0.489s0.966-0.765 1.28-1.318c0.326-0.552 0.489-1.167 0.489-1.845 0-0.69-0.163-1.311-0.489-1.864-0.314-0.552-0.74-0.991-1.28-1.318s-1.136-0.489-1.788-0.489h-4.329v7.322z"></path>
            <path fill="#efede8" style="fill: var(--color1, #efede8)"
                d="M27.51 30.362c-1.732 0-3.313-0.446-4.744-1.336-1.418-0.891-2.554-2.083-3.407-3.576-0.841-1.506-1.261-3.169-1.261-4.988 0-1.38 0.245-2.667 0.734-3.859 0.489-1.205 1.161-2.259 2.014-3.162 0.866-0.916 1.87-1.631 3.012-2.146s2.359-0.772 3.652-0.772c1.732 0 3.307 0.445 4.725 1.336 1.431 0.891 2.566 2.089 3.407 3.595 0.853 1.506 1.28 3.175 1.28 5.007 0 1.368-0.245 2.648-0.734 3.84s-1.167 2.246-2.033 3.162c-0.853 0.904-1.851 1.613-2.993 2.127-1.129 0.514-2.347 0.772-3.652 0.772zM27.51 25.769c0.916 0 1.738-0.245 2.466-0.734s1.299-1.136 1.713-1.939c0.427-0.803 0.64-1.681 0.64-2.635 0-0.979-0.219-1.87-0.659-2.673-0.427-0.816-1.010-1.462-1.751-1.939-0.728-0.489-1.531-0.734-2.409-0.734-0.904 0-1.719 0.245-2.447 0.734s-1.305 1.142-1.732 1.958c-0.427 0.816-0.64 1.7-0.64 2.654 0 0.991 0.22 1.889 0.659 2.692s1.023 1.443 1.751 1.92c0.741 0.464 1.544 0.696 2.409 0.696z"></path>
            <path fill="#efede8" style="fill: var(--color1, #efede8)"
                d="M48.683 29.873h-4.555l-6.287-18.824h4.499l4.085 12.179 4.066-12.179h4.536l4.066 12.179 4.085-12.179h4.499l-6.287 18.824h-4.555l-4.085-12.235-4.066 12.235z"></path>
            <path fill="#efede8" style="fill: var(--color1, #efede8)"
                d="M78.025 30.362c-1.732 0-3.313-0.446-4.744-1.336-1.418-0.891-2.554-2.089-3.407-3.595-0.841-1.506-1.261-3.169-1.261-4.988 0-1.368 0.245-2.648 0.734-3.84 0.489-1.205 1.161-2.259 2.014-3.162 0.866-0.916 1.87-1.631 3.012-2.146s2.359-0.772 3.652-0.772c1.468 0 2.811 0.314 4.028 0.941 1.23 0.615 2.271 1.462 3.125 2.541s1.474 2.309 1.864 3.689c0.389 1.38 0.477 2.824 0.264 4.329h-13.76c0.176 0.703 0.464 1.336 0.866 1.901 0.401 0.552 0.91 0.998 1.525 1.336 0.615 0.326 1.311 0.496 2.089 0.508 0.803 0.013 1.531-0.176 2.184-0.565 0.665-0.401 1.217-0.941 1.656-1.619l4.687 1.092c-0.766 1.669-1.908 3.037-3.426 4.104-1.519 1.054-3.219 1.581-5.101 1.581zM73.394 18.579h9.261c-0.138-0.753-0.433-1.431-0.885-2.033-0.439-0.615-0.985-1.104-1.638-1.468s-1.355-0.546-2.108-0.546-1.449 0.182-2.089 0.546c-0.64 0.351-1.186 0.835-1.638 1.449-0.439 0.602-0.741 1.286-0.904 2.052z"></path>
            <path fill="#efede8" style="fill: var(--color1, #efede8)"
                d="M90.386 29.873l-0.019-18.824h4.593l0.019 1.675c0.64-0.678 1.406-1.211 2.296-1.6 0.891-0.402 1.851-0.602 2.88-0.602 0.69 0 1.38 0.1 2.071 0.301l-1.807 4.631c-0.477-0.188-0.954-0.282-1.431-0.282-0.74 0-1.418 0.182-2.033 0.546-0.602 0.351-1.086 0.834-1.449 1.449-0.351 0.602-0.527 1.274-0.527 2.014v10.692h-4.593z"></path>
            <path fill="#efede8" style="fill: var(--color1, #efede8)"
                d="M104.338 29.873v-26.353h9.412c1.431 0 2.723 0.358 3.878 1.073 1.167 0.715 2.089 1.675 2.767 2.88s1.016 2.529 1.016 3.972c0 1.481-0.351 2.824-1.054 4.028-0.69 1.192-1.619 2.146-2.786 2.861-1.167 0.703-2.441 1.054-3.821 1.054h-4.819v10.485h-4.593zM108.931 14.795h4.329c0.653 0 1.249-0.163 1.788-0.489s0.966-0.765 1.28-1.318c0.326-0.552 0.489-1.167 0.489-1.845 0-0.69-0.163-1.311-0.489-1.864-0.314-0.552-0.74-0.991-1.28-1.318s-1.136-0.489-1.788-0.489h-4.329v7.322z"></path>
            <path fill="#efede8" style="fill: var(--color1, #efede8)"
                d="M123.365 22.908v-11.859h4.593v10.654c0 0.74 0.182 1.418 0.546 2.033 0.364 0.602 0.847 1.086 1.449 1.449 0.615 0.351 1.286 0.527 2.014 0.527 0.753 0 1.431-0.176 2.033-0.527 0.602-0.364 1.086-0.847 1.449-1.449 0.364-0.615 0.546-1.293 0.546-2.033v-10.654h4.593l0.019 18.824h-4.593l-0.019-1.713c-0.653 0.678-1.424 1.217-2.315 1.619-0.891 0.389-1.845 0.584-2.861 0.584-1.368 0-2.616-0.333-3.746-0.998-1.129-0.678-2.033-1.575-2.711-2.692-0.665-1.129-0.998-2.384-0.998-3.765z"></path>
            <path fill="#efede8" style="fill: var(--color1, #efede8)"
                d="M144.485 29.873v-28.235h4.593v28.235h-4.593z"></path>
            <path fill="#efede8" style="fill: var(--color1, #efede8)"
                d="M159.156 30.212c-0.979-0.063-1.926-0.257-2.842-0.584-0.904-0.339-1.707-0.797-2.409-1.374s-1.242-1.267-1.619-2.071l3.878-1.656c0.151 0.251 0.395 0.521 0.734 0.809 0.339 0.276 0.74 0.508 1.205 0.696 0.477 0.188 0.998 0.282 1.562 0.282 0.477 0 0.929-0.063 1.355-0.188 0.439-0.138 0.791-0.345 1.054-0.621 0.276-0.276 0.414-0.634 0.414-1.073 0-0.464-0.163-0.822-0.489-1.073-0.314-0.264-0.715-0.458-1.205-0.584-0.477-0.138-0.941-0.264-1.393-0.376-1.192-0.238-2.303-0.609-3.332-1.111-1.016-0.502-1.839-1.148-2.466-1.939-0.615-0.803-0.922-1.769-0.922-2.899 0-1.242 0.326-2.315 0.979-3.219 0.665-0.904 1.525-1.6 2.579-2.089 1.067-0.489 2.215-0.734 3.445-0.734 1.493 0 2.861 0.314 4.104 0.941 1.255 0.615 2.246 1.487 2.974 2.616l-3.633 2.146c-0.176-0.301-0.421-0.577-0.734-0.828-0.314-0.264-0.671-0.477-1.073-0.64-0.402-0.176-0.822-0.276-1.261-0.301-0.565-0.025-1.079 0.025-1.544 0.151s-0.841 0.339-1.129 0.64c-0.276 0.301-0.414 0.703-0.414 1.205 0 0.477 0.188 0.834 0.565 1.073 0.376 0.226 0.828 0.402 1.355 0.527 0.539 0.125 1.054 0.264 1.544 0.414 1.104 0.364 2.139 0.809 3.106 1.336 0.979 0.527 1.763 1.173 2.353 1.939s0.872 1.681 0.847 2.748c0 1.217-0.364 2.284-1.092 3.2-0.728 0.904-1.669 1.594-2.824 2.071-1.142 0.477-2.366 0.665-3.671 0.565z"></path>
            <path fill="#efede8" style="fill: var(--color1, #efede8)"
                d="M177.951 30.362c-1.732 0-3.313-0.446-4.744-1.336-1.418-0.891-2.554-2.089-3.407-3.595-0.841-1.506-1.261-3.169-1.261-4.988 0-1.368 0.245-2.648 0.734-3.84 0.489-1.205 1.161-2.259 2.014-3.162 0.866-0.916 1.87-1.631 3.012-2.146s2.359-0.772 3.652-0.772c1.468 0 2.811 0.314 4.028 0.941 1.23 0.615 2.271 1.462 3.125 2.541s1.475 2.309 1.864 3.689c0.389 1.38 0.477 2.824 0.264 4.329h-13.76c0.176 0.703 0.464 1.336 0.866 1.901 0.402 0.552 0.91 0.998 1.525 1.336 0.615 0.326 1.311 0.496 2.089 0.508 0.803 0.013 1.531-0.176 2.184-0.565 0.665-0.401 1.217-0.941 1.656-1.619l4.687 1.092c-0.766 1.669-1.907 3.037-3.426 4.104-1.518 1.054-3.219 1.581-5.101 1.581zM173.321 18.579h9.261c-0.138-0.753-0.433-1.431-0.885-2.033-0.439-0.615-0.985-1.104-1.638-1.468s-1.355-0.546-2.108-0.546-1.449 0.182-2.089 0.546c-0.64 0.351-1.186 0.835-1.638 1.449-0.439 0.602-0.74 1.286-0.904 2.052z"></path>
        </symbol>
        <symbol id="icon-pause" viewBox="0 0 32 32">
            <path fill="#e6533c"
                style="fill: var(--color1, #e6533c); stroke: var(--color1, #e6533c)"
                stroke="#e6533c" stroke-linejoin="round" stroke-linecap="round"
                stroke-miterlimit="4" stroke-width="1"
                d="M4 10.4c0-2.24 0-3.36 0.436-4.216 0.383-0.753 0.995-1.365 1.748-1.748 0.856-0.436 1.976-0.436 4.216-0.436h11.2c2.24 0 3.36 0 4.216 0.436 0.753 0.383 1.364 0.995 1.748 1.748 0.436 0.856 0.436 1.976 0.436 4.216v11.2c0 2.24 0 3.36-0.436 4.216-0.384 0.753-0.995 1.364-1.748 1.748-0.856 0.436-1.976 0.436-4.216 0.436h-11.2c-2.24 0-3.36 0-4.216-0.436-0.753-0.384-1.365-0.995-1.748-1.748-0.436-0.856-0.436-1.976-0.436-4.216v-11.2z"></path>
            <path fill="none" stroke="#efede8" style="stroke: var(--color2, #efede8)"
                stroke-linejoin="round" stroke-linecap="round" stroke-miterlimit="4"
                stroke-width="1.3" d="M12.666 20v-8M19.333 20v-8"></path>
        </symbol>
        <symbol id="icon-play" viewBox="0 0 32 32">
            <path fill="#e6533c"
                style="fill: var(--color1, #e6533c); stroke: var(--color1, #e6533c)"
                stroke="#e6533c" stroke-linejoin="round" stroke-linecap="round"
                stroke-miterlimit="4" stroke-width="1"
                d="M4 10.4c0-2.24 0-3.36 0.436-4.216 0.383-0.753 0.995-1.365 1.748-1.748 0.856-0.436 1.976-0.436 4.216-0.436h11.2c2.24 0 3.36 0 4.216 0.436 0.753 0.383 1.364 0.995 1.748 1.748 0.436 0.856 0.436 1.976 0.436 4.216v11.2c0 2.24 0 3.36-0.436 4.216-0.384 0.753-0.995 1.364-1.748 1.748-0.856 0.436-1.976 0.436-4.216 0.436h-11.2c-2.24 0-3.36 0-4.216-0.436-0.753-0.384-1.365-0.995-1.748-1.748-0.436-0.856-0.436-1.976-0.436-4.216v-11.2z"></path>
            <path fill="#efede8"
                style="fill: var(--color2, #efede8); stroke: var(--color2, #efede8)"
                stroke="#efede8" stroke-linejoin="round" stroke-linecap="round"
                stroke-miterlimit="4" stroke-width="1.3"
                d="M11.917 10.75l8.167 5.25-8.167 5.25v-10.5z"></path>
        </symbol>
    </defs>
</svg>